<?xml version="1.0" standalone="no"?>
<!DOCTYPE svg PUBLIC "-//W3C//DTD SVG 20010904//EN"
 "http://www.w3.org/TR/2001/REC-SVG-20010904/DTD/svg10.dtd">
<svg version="1.0" xmlns="http://www.w3.org/2000/svg"
 width="3000.000000pt" height="3000.000000pt" viewBox="0 0 3000.000000 3000.000000"
 preserveAspectRatio="xMidYMid meet">

<g transform="translate(0.000000,3000.000000) scale(0.100000,-0.100000)"
fill="#000000" stroke="none">
<path d="M7098 25873 c-19 -9 -28 -22 -28 -38 0 -17 -8 -26 -30 -34 -16 -5
-30 -15 -30 -20 0 -6 -7 -11 -15 -11 -17 0 -52 -18 -73 -37 -7 -7 -25 -14 -40
-15 -74 -5 -99 -4 -120 4 -30 10 -101 -12 -108 -34 -3 -10 -10 -18 -15 -18 -5
0 -9 -7 -9 -15 0 -8 -9 -15 -20 -15 -10 0 -27 -8 -37 -19 -15 -16 -108 -44
-131 -39 -4 0 -14 -2 -22 -5 -8 -3 -41 -11 -72 -17 -32 -6 -64 -18 -72 -26 -8
-8 -24 -14 -35 -14 -12 0 -21 -4 -21 -9 0 -4 -35 -14 -77 -21 -43 -6 -84 -14
-91 -16 -7 -2 -20 11 -28 29 -8 17 -23 46 -33 62 -10 17 -16 35 -15 40 2 6
-15 30 -39 55 -35 38 -49 46 -85 48 -28 2 -48 -3 -58 -13 -9 -8 -27 -15 -40
-15 -14 0 -41 -7 -61 -15 -20 -9 -76 -21 -125 -27 -53 -8 -88 -17 -88 -24 0
-6 -13 -17 -30 -24 -16 -7 -30 -16 -30 -20 0 -15 -67 -22 -180 -19 -236 8
-338 4 -358 -14 -10 -9 -23 -17 -29 -17 -6 0 -13 -7 -17 -15 -3 -8 -13 -15
-23 -15 -14 0 -15 -2 -4 -9 8 -5 -5 -7 -35 -3 -31 3 -55 12 -66 25 -13 14 -18
16 -18 6 0 -11 -2 -11 -10 1 -8 13 -10 13 -10 -1 0 -20 -27 -29 -64 -22 -23 5
-26 10 -26 49 0 37 3 44 20 44 15 0 20 7 20 25 0 26 -9 32 -26 16 -11 -11
-152 -51 -178 -51 -9 0 -65 -18 -124 -40 -59 -23 -138 -47 -175 -55 -65 -14
-150 -49 -191 -80 -16 -12 -18 -22 -12 -61 5 -41 3 -49 -21 -75 -15 -15 -40
-31 -56 -35 -22 -4 -26 -10 -22 -25 5 -15 -1 -23 -29 -34 -20 -9 -36 -22 -36
-30 0 -8 -7 -15 -15 -15 -8 0 -15 -6 -15 -14 0 -8 -9 -18 -20 -21 -11 -3 -20
-15 -20 -26 0 -10 -4 -19 -8 -19 -5 0 -20 -27 -35 -60 -14 -33 -34 -63 -44
-66 -10 -4 -30 -20 -45 -37 -16 -16 -28 -27 -28 -24 0 4 -36 -18 -79 -47 -44
-30 -81 -52 -84 -50 -3 3 -8 -11 -11 -30 -5 -28 -13 -37 -41 -46 -19 -6 -35
-16 -35 -21 0 -5 -7 -9 -15 -9 -8 0 -15 -4 -15 -10 0 -5 -9 -10 -20 -10 -11 0
-20 -4 -20 -10 0 -5 -18 -10 -40 -10 -22 0 -40 5 -40 10 0 6 -13 10 -30 10
-16 0 -30 -4 -30 -9 0 -5 -16 -15 -35 -21 -20 -6 -61 -36 -91 -66 -31 -30 -63
-54 -70 -54 -8 0 -17 -7 -20 -15 -11 -27 -24 -16 -24 20 0 28 -4 36 -24 41
-34 8 -64 -3 -71 -27 -4 -10 -10 -19 -14 -19 -12 0 -91 -76 -91 -88 0 -5 -21
-36 -47 -68 -42 -52 -47 -63 -48 -109 l0 -50 45 -11 c25 -6 45 -16 44 -22 -1
-7 -2 -29 -3 -49 -1 -32 -8 -43 -41 -66 -22 -16 -40 -34 -40 -42 0 -7 -9 -17
-20 -20 -11 -3 -20 -12 -21 -18 -2 -43 -10 -71 -23 -86 -9 -10 -19 -33 -22
-52 -4 -20 -25 -53 -51 -81 -44 -49 -63 -84 -63 -120 0 -11 -13 -37 -30 -58
-17 -21 -30 -45 -30 -53 0 -9 -4 -19 -10 -22 -5 -3 -10 -16 -10 -28 0 -18 -2
-19 -10 -7 -8 12 -10 11 -10 -7 0 -12 -5 -23 -11 -25 -5 -2 -12 -24 -14 -50
-2 -26 -8 -56 -14 -67 -6 -11 -11 -31 -11 -44 0 -14 -14 -38 -35 -58 -25 -24
-35 -43 -35 -64 0 -29 -28 -65 -50 -65 -6 0 -10 -9 -10 -20 0 -10 -13 -35 -30
-53 -16 -19 -30 -46 -30 -60 0 -14 -11 -39 -25 -55 -14 -17 -31 -45 -37 -64
-6 -18 -29 -51 -50 -73 -21 -22 -38 -47 -38 -57 0 -9 -6 -23 -13 -30 -8 -7
-12 -24 -10 -38 5 -43 -9 -54 -48 -36 -19 8 -28 15 -21 15 6 1 12 10 12 21 0
11 5 20 11 20 6 0 8 9 4 20 -7 22 12 86 32 111 7 8 13 28 13 42 0 15 4 27 10
27 9 0 12 37 11 140 0 36 19 79 40 91 11 5 19 21 19 35 0 14 7 33 16 41 13 13
13 17 2 24 -20 13 -64 11 -77 -5 -14 -17 -50 -125 -51 -151 0 -11 -16 -33 -35
-48 -19 -15 -35 -37 -35 -48 0 -10 -13 -44 -29 -74 -17 -31 -40 -88 -52 -128
-13 -39 -27 -75 -33 -79 -5 -3 -2 -13 8 -24 16 -15 16 -19 4 -28 -25 -19 -28
-57 -7 -97 29 -58 26 -94 -11 -111 -17 -7 -30 -19 -30 -25 0 -7 -4 -13 -8 -13
-5 0 -19 -9 -32 -20 -13 -11 -28 -20 -35 -20 -7 0 -22 -9 -35 -20 -13 -11 -29
-20 -37 -20 -8 0 -13 -12 -13 -30 0 -17 -3 -29 -7 -29 -22 4 -33 -3 -33 -20 0
-11 -9 -26 -20 -34 -14 -10 -22 -34 -31 -88 -6 -41 -17 -87 -25 -102 -8 -16
-14 -35 -14 -43 0 -8 -7 -14 -15 -14 -8 0 -18 -15 -23 -34 -9 -30 -43 -76 -58
-76 -15 0 -34 -32 -34 -59 0 -17 -4 -31 -10 -31 -5 0 -10 -9 -10 -20 0 -11 -5
-20 -10 -20 -13 0 -1 -50 17 -68 16 -16 16 -17 2 -84 -18 -92 -30 -128 -39
-128 -6 0 -10 -5 -10 -11 0 -13 -25 -39 -38 -39 -6 0 -12 -7 -16 -15 -3 -8
-15 -15 -26 -15 -11 0 -20 7 -20 15 0 8 -7 15 -15 15 -8 0 -15 -6 -15 -14 0
-7 -9 -16 -20 -19 -14 -3 -20 -14 -20 -31 0 -14 -5 -26 -11 -26 -28 0 -39 -30
-39 -104 0 -63 -3 -76 -16 -76 -14 0 -16 -13 -13 -92 2 -51 1 -97 -3 -103 -3
-5 -9 -25 -13 -43 -3 -18 -16 -37 -27 -43 -14 -7 -17 -14 -9 -18 6 -4 14 -28
17 -54 6 -39 4 -48 -11 -53 -12 -5 -13 -9 -4 -14 7 -5 12 -28 12 -54 -1 -34 3
-46 14 -46 17 0 14 -31 -4 -38 -8 -2 -13 5 -13 17 0 14 -6 21 -20 21 -13 0
-20 -7 -20 -20 0 -11 5 -20 10 -20 18 0 11 -21 -17 -51 -16 -17 -37 -39 -47
-51 -22 -25 -42 -85 -51 -159 -4 -30 -10 -58 -14 -64 -7 -9 -23 -94 -36 -192
-6 -42 -6 -43 25 -43 30 0 30 0 30 -56 0 -50 -2 -55 -19 -49 -21 6 -51 -18
-51 -41 0 -8 -4 -14 -9 -14 -14 0 -23 -35 -25 -101 l-2 -59 42 0 c25 0 44 -5
47 -12 3 -9 11 -6 24 10 18 20 30 22 106 22 l85 0 8 67 c4 37 11 72 16 77 40
49 48 61 53 77 4 11 16 19 28 19 26 0 46 47 54 124 5 51 21 76 46 76 18 0 37
42 30 68 -2 11 2 33 11 48 8 16 16 22 16 14 0 -12 3 -11 11 3 24 41 106 44 95
3 -4 -11 -8 -50 -10 -86 -3 -44 -12 -81 -30 -116 -14 -29 -26 -58 -26 -66 0
-8 -11 -24 -24 -37 -19 -18 -38 -60 -52 -116 -1 -5 -14 -42 -28 -81 -17 -48
-23 -83 -20 -105 5 -29 1 -40 -30 -74 -20 -21 -36 -42 -36 -45 0 -4 -9 -17
-20 -30 -16 -18 -20 -37 -20 -92 l0 -68 29 0 c34 0 49 -26 20 -35 -10 -4 -19
-12 -19 -18 0 -7 -8 -17 -18 -24 -16 -9 -20 -29 -25 -123 -7 -115 -16 -140
-54 -140 -28 0 -43 -20 -43 -57 0 -19 -6 -36 -16 -41 -24 -13 -11 -62 16 -62
13 0 20 -7 20 -20 0 -11 7 -20 15 -20 8 0 15 -9 15 -20 0 -11 4 -20 9 -20 20
0 27 -54 14 -104 -7 -28 -13 -59 -13 -69 0 -16 -5 -19 -31 -13 -17 3 -35 6
-40 6 -5 0 -9 9 -9 20 0 11 -4 20 -10 20 -5 0 -10 -7 -10 -15 0 -8 -4 -15 -10
-15 -5 0 -10 7 -10 15 0 8 -4 15 -9 15 -5 0 -12 10 -14 23 -3 12 -4 0 -3 -28
1 -31 7 -55 16 -63 13 -12 13 -13 0 -6 -10 5 -9 1 3 -14 11 -11 25 -18 33 -15
8 3 14 1 14 -5 0 -5 -13 -12 -30 -15 -25 -5 -30 -11 -30 -35 0 -15 -7 -37 -15
-48 -8 -10 -15 -27 -15 -36 0 -9 -6 -21 -13 -25 -7 -4 -20 -21 -30 -36 -10
-15 -22 -25 -26 -23 -5 3 -19 -4 -32 -15 l-24 -20 -8 25 c-5 14 -12 26 -17 26
-17 0 -31 90 -28 185 3 87 0 103 -17 127 -63 84 -96 40 -110 -147 -4 -49 -15
-115 -25 -145 -10 -30 -22 -93 -26 -140 -3 -47 -11 -96 -16 -109 -5 -14 -11
-57 -14 -95 -2 -39 -7 -82 -9 -96 -35 -201 -39 -238 -50 -420 -7 -108 -14
-170 -19 -178 -26 -42 -26 -1037 -1 -1717 7 -193 8 -197 69 -342 29 -70 59
-146 66 -168 7 -22 42 -107 78 -190 89 -205 157 -371 197 -486 45 -126 175
-424 227 -517 22 -40 57 -93 78 -116 20 -24 54 -75 75 -112 21 -38 52 -85 69
-106 17 -20 49 -69 70 -110 22 -40 56 -93 77 -118 20 -25 53 -76 74 -115 20
-38 52 -90 70 -115 18 -25 53 -82 79 -127 25 -45 71 -118 101 -163 30 -45 69
-109 86 -143 17 -33 48 -84 69 -111 88 -117 191 -335 211 -446 6 -30 21 -86
35 -123 13 -38 24 -78 24 -90 0 -11 11 -57 24 -101 45 -151 68 -231 78 -281 6
-27 21 -81 34 -120 13 -38 26 -88 29 -110 4 -22 16 -65 27 -95 20 -56 32 -113
49 -230 9 -67 58 -503 64 -575 3 -37 62 -600 70 -670 2 -16 6 -61 9 -98 3 -37
11 -88 17 -112 l11 -44 47 19 c25 10 113 50 195 89 82 39 150 71 151 71 3 0
443 206 650 305 55 26 190 89 300 140 110 51 407 190 660 310 253 119 611 288
795 375 320 151 581 276 938 452 89 44 162 86 162 93 0 7 -13 16 -28 20 -21 4
-33 17 -47 48 -10 23 -27 50 -38 60 -11 9 -15 17 -9 17 7 0 12 7 12 16 0 8 7
23 16 31 13 13 17 14 24 3 7 -11 11 -10 25 3 26 27 135 18 135 -10 0 -19 45
-63 65 -63 8 0 15 -9 15 -20 0 -32 0 -32 228 77 85 40 92 46 92 72 0 16 -6 32
-12 34 -10 4 -9 8 2 16 24 17 45 8 48 -22 4 -35 16 -34 99 5 37 18 73 33 78
34 6 1 35 13 65 26 30 14 120 53 200 89 186 82 343 161 347 175 2 5 -13 19
-33 30 -84 44 -96 51 -102 60 -4 6 -28 24 -53 42 -43 29 -69 61 -51 63 4 0 24
2 45 5 21 2 45 7 54 12 8 5 33 5 57 0 22 -5 71 -11 109 -14 l67 -6 0 106 c0
99 1 107 25 130 67 67 111 64 192 -12 63 -59 127 -90 158 -78 17 6 17 21 4
186 0 8 -7 32 -15 52 -13 37 -13 38 20 63 44 34 91 33 147 -4 24 -16 69 -36
99 -46 30 -10 60 -22 67 -27 6 -5 31 -8 56 -7 41 2 44 4 34 21 -7 10 -20 18
-29 18 -12 0 -18 8 -19 25 -2 37 -3 43 -11 50 -12 12 11 45 31 45 10 0 24 7
31 15 6 8 35 23 64 34 29 11 74 31 100 46 87 49 164 64 341 69 72 2 121 8 123
14 2 6 9 9 15 6 11 -4 30 30 70 126 28 67 167 180 221 180 9 0 25 5 36 10 11
6 29 15 40 20 11 6 30 10 43 10 48 0 87 21 87 45 0 13 -4 27 -10 30 -17 10
-11 38 13 67 12 15 29 36 37 47 9 11 49 36 89 55 83 39 111 39 170 -1 27 -19
44 -23 70 -19 42 7 51 19 51 71 -1 88 49 221 96 251 13 9 51 18 84 21 53 5 64
3 84 -16 19 -18 28 -21 44 -12 11 6 22 7 26 4 14 -14 5 22 -10 38 -15 16 -14
19 5 31 12 7 21 20 21 29 0 10 11 19 29 22 40 8 71 -2 71 -24 0 -30 72 -26
104 6 27 27 66 32 110 15 53 -20 97 -163 67 -218 -27 -48 -81 -182 -81 -199 0
-10 -6 -25 -12 -31 -30 -30 158 52 458 199 226 111 236 121 260 264 11 62 37
98 65 90 30 -10 88 23 95 53 4 15 17 37 30 50 13 13 24 32 24 42 0 11 5 20 10
20 6 0 10 9 10 20 0 15 7 20 26 20 17 0 38 11 56 30 19 21 38 30 59 30 39 0
69 32 69 72 0 17 4 27 10 23 6 -3 11 -5 12 -3 1 2 5 95 9 208 8 222 16 300 30
300 5 0 9 27 9 60 0 33 -4 60 -10 60 -5 0 -10 18 -10 40 0 22 -4 40 -10 40 -5
0 -10 24 -10 54 0 43 -3 55 -18 58 -14 4 -21 23 -30 84 -7 43 -17 81 -22 82
-6 2 -10 21 -10 43 0 32 -3 39 -20 39 -15 0 -20 7 -20 25 0 18 -5 25 -20 25
-13 0 -20 7 -20 20 0 13 -7 20 -20 20 -11 0 -20 4 -20 10 0 12 -65 30 -107 30
-23 0 -33 5 -33 15 0 8 -9 15 -20 15 -11 0 -20 5 -20 11 0 15 -26 39 -43 39
-9 0 -17 4 -19 9 -1 5 -28 12 -58 16 -51 6 -56 5 -65 -17 -10 -24 -12 -24
-132 -17 -13 1 -23 7 -23 15 0 8 -7 14 -16 14 -18 0 -44 24 -44 41 0 9 -16 10
-60 6 -33 -4 -60 -3 -60 2 0 5 -17 12 -37 16 -20 4 -44 15 -53 25 -11 12 -47
25 -103 36 -48 9 -87 21 -87 26 0 4 -41 8 -91 8 -69 0 -107 6 -162 24 -47 16
-102 25 -156 28 -73 3 -86 6 -110 28 -30 29 -107 46 -255 55 -48 3 -123 13
-165 21 -42 9 -87 18 -101 19 -14 1 -61 10 -105 20 -48 10 -140 18 -229 21
-81 2 -153 7 -160 12 -22 18 -85 21 -100 6 -8 -8 -21 -14 -29 -14 -9 0 -17 -6
-20 -12 -8 -25 5 -44 42 -67 20 -13 42 -33 47 -45 5 -12 20 -22 37 -24 19 -2
27 -9 27 -23 0 -12 7 -19 20 -19 13 0 20 -7 20 -20 0 -11 5 -20 10 -20 6 0 10
-7 10 -14 0 -8 11 -27 25 -42 14 -15 25 -33 25 -40 0 -30 35 -84 62 -95 17 -7
28 -19 28 -30 0 -11 7 -19 17 -19 9 0 13 -3 10 -6 -9 -10 12 -46 24 -39 5 4 9
1 9 -5 0 -8 10 -9 29 -5 19 4 34 1 44 -9 18 -18 37 -21 37 -6 0 6 9 10 20 10
11 0 20 4 20 9 0 5 43 11 95 13 68 2 95 0 95 -9 0 -12 13 -18 73 -28 20 -3 37
-10 37 -15 0 -6 9 -10 19 -10 11 0 23 -5 26 -10 3 -5 15 -10 26 -10 21 0 26
-16 7 -22 -9 -3 -8 -9 5 -22 9 -10 17 -22 17 -27 0 -5 7 -9 15 -9 8 0 15 -7
15 -16 0 -18 23 -44 39 -44 6 0 11 -4 11 -10 0 -5 7 -10 15 -10 8 0 15 -6 15
-12 0 -9 4 -8 11 2 9 13 10 12 5 -2 -7 -24 3 -48 20 -48 8 0 14 -4 14 -10 0
-5 8 -10 19 -10 11 0 23 -12 31 -30 7 -16 16 -30 21 -30 5 0 9 -9 9 -20 0 -13
7 -20 20 -20 13 0 20 -7 20 -20 0 -13 7 -20 20 -20 13 0 20 -7 20 -20 0 -13 7
-20 20 -20 13 0 20 -7 20 -20 0 -13 7 -20 20 -20 11 0 20 5 20 10 0 6 40 10
100 10 l101 0 6 -30 c5 -26 10 -30 39 -30 27 0 34 -4 34 -20 0 -13 7 -20 20
-20 11 0 20 -4 20 -10 0 -5 7 -10 15 -10 8 0 15 -9 15 -20 0 -15 7 -20 25 -20
18 0 25 -5 25 -20 0 -13 7 -20 20 -20 11 0 20 -7 20 -15 0 -8 4 -15 10 -15 5
0 20 -11 34 -25 14 -14 37 -25 51 -25 18 0 25 -5 25 -20 0 -16 8 -19 58 -22
48 -3 57 -6 54 -20 -2 -13 4 -18 23 -18 14 0 25 -4 25 -10 0 -5 7 -10 15 -10
8 0 15 -4 15 -10 0 -5 7 -10 15 -10 8 0 15 -7 15 -16 0 -8 7 -22 15 -30 36
-36 1 -64 -80 -64 -27 0 -45 -5 -48 -14 -3 -7 -25 -16 -49 -19 -64 -8 -162
-30 -168 -38 -3 -4 -39 -14 -80 -23 -96 -21 -171 -45 -190 -61 -8 -6 -53 -22
-100 -35 -47 -13 -101 -31 -120 -41 -19 -10 -60 -29 -90 -42 -30 -14 -71 -32
-92 -41 -20 -9 -40 -16 -45 -16 -5 0 -28 -9 -51 -20 -22 -11 -47 -20 -55 -20
-8 0 -26 -9 -40 -20 -14 -11 -28 -20 -32 -20 -3 0 -13 -7 -21 -15 -9 -8 -26
-15 -38 -15 -19 0 -62 -20 -201 -93 -50 -26 -143 -67 -153 -67 -29 0 -238
-125 -252 -151 -6 -10 -19 -19 -29 -19 -10 0 -28 -9 -41 -20 -13 -11 -27 -20
-33 -20 -5 0 -23 -11 -39 -25 -16 -14 -33 -23 -37 -20 -4 2 -26 -16 -49 -40
-23 -25 -44 -45 -46 -45 -3 0 -36 -24 -74 -52 -37 -29 -84 -64 -103 -79 -19
-14 -61 -36 -94 -48 -33 -13 -82 -34 -110 -46 -53 -24 -70 -29 -260 -75 -253
-63 -424 -110 -480 -134 -17 -8 -46 -17 -65 -21 -19 -4 -44 -13 -56 -20 -12
-8 -46 -21 -77 -30 -31 -9 -67 -25 -80 -36 -14 -10 -31 -19 -39 -19 -7 0 -38
-9 -68 -21 -155 -59 -188 -71 -216 -78 -18 -5 -37 -12 -43 -16 -23 -14 -224
-13 -238 1 -21 20 -16 33 35 83 54 54 72 82 72 112 0 24 22 49 44 49 23 0 20
17 -4 25 -28 9 -25 22 10 55 26 25 30 35 30 84 0 31 -4 56 -10 56 -5 0 -10 9
-10 20 0 11 4 20 9 20 5 0 11 12 13 28 3 23 8 27 41 30 20 2 37 7 37 13 0 5
18 9 40 9 22 0 40 -4 40 -10 0 -6 47 -10 120 -10 73 0 120 -4 120 -10 0 -5 18
-10 40 -10 22 0 40 -3 40 -8 0 -19 66 -32 176 -34 149 -4 222 2 235 18 6 7 29
15 52 19 23 4 62 13 87 20 25 8 70 20 100 29 112 31 128 37 133 51 3 7 29 18
58 24 51 11 129 48 129 61 0 4 25 13 56 20 31 8 64 22 73 31 9 9 35 22 57 28
23 6 47 17 53 24 6 8 29 20 50 27 22 7 42 19 45 27 3 8 22 21 41 29 19 8 35
21 35 30 0 9 9 27 20 41 21 27 19 65 -6 94 -8 8 -14 34 -14 57 0 32 -4 42 -20
47 -11 3 -20 11 -20 16 0 6 -11 21 -24 34 -13 13 -27 39 -31 57 -11 53 -38
108 -53 108 -11 0 -10 3 2 16 9 8 16 20 16 26 0 6 18 27 40 45 22 19 38 38 35
43 -3 5 4 11 15 15 11 3 27 19 37 36 10 16 25 32 35 35 17 5 58 75 58 97 0 6
6 15 14 21 8 6 15 29 17 51 4 76 4 75 -56 75 -45 0 -60 -5 -87 -29 -18 -15
-51 -34 -73 -42 -50 -17 -65 -27 -65 -47 0 -8 -21 -39 -47 -67 -60 -66 -67
-75 -83 -106 -7 -13 -16 -26 -20 -29 -13 -9 -22 -50 -11 -50 6 0 11 -7 11 -16
0 -8 7 -22 15 -30 16 -17 21 -54 6 -54 -5 0 -11 -9 -14 -20 -3 -11 -12 -20
-21 -20 -9 0 -16 -8 -16 -20 0 -11 7 -20 15 -20 8 0 15 -4 15 -10 0 -5 -4 -10
-9 -10 -5 0 -15 -15 -21 -34 -13 -40 -34 -48 -72 -29 -36 17 -35 28 2 63 17
15 30 35 30 44 0 9 8 16 20 16 13 0 20 7 20 20 0 13 -7 20 -20 20 -13 0 -20
-7 -20 -20 0 -13 -7 -20 -20 -20 -11 0 -20 7 -20 15 0 12 -19 15 -114 15 -63
0 -116 -4 -118 -9 -1 -5 -52 -14 -113 -21 -60 -6 -112 -15 -115 -20 -9 -15
-60 -30 -103 -30 -23 0 -51 -7 -61 -15 -11 -8 -30 -15 -43 -15 -13 0 -23 -4
-23 -10 0 -5 -16 -12 -35 -16 -19 -3 -35 -10 -35 -15 0 -5 -9 -9 -20 -9 -11 0
-20 -7 -20 -15 0 -10 -11 -15 -35 -15 -25 0 -37 -6 -46 -21 -10 -19 -16 -21
-71 -15 -34 4 -67 14 -75 22 -8 8 -26 16 -41 20 -15 3 -45 10 -67 15 -22 6
-52 12 -66 13 -14 1 -31 6 -38 10 -7 4 -24 5 -38 1 -20 -5 -24 -10 -19 -28 4
-18 1 -17 -23 11 -16 17 -36 32 -45 32 -9 0 -16 5 -16 10 0 6 -30 10 -70 10
-40 0 -70 -4 -70 -10 0 -5 -18 -10 -40 -10 -22 0 -40 -4 -40 -10 0 -5 -9 -10
-20 -10 -11 0 -20 -6 -20 -13 0 -19 -85 -36 -141 -30 -34 4 -50 1 -61 -11 -9
-9 -23 -16 -31 -16 -29 0 -47 -12 -47 -31 0 -10 -4 -19 -10 -19 -6 0 -10 -33
-10 -80 0 -47 4 -80 10 -80 6 0 10 -27 10 -60 0 -53 -2 -60 -20 -60 -13 0 -20
7 -20 20 0 13 -7 20 -20 20 -13 0 -20 7 -20 20 0 13 -7 20 -20 20 -13 0 -20 7
-20 20 0 11 -4 20 -10 20 -6 0 -10 30 -10 70 0 40 -4 70 -10 70 -5 0 -10 9
-10 20 0 11 -4 20 -10 20 -6 0 -10 35 -10 86 0 51 -6 99 -14 117 -7 18 -19 59
-26 92 -6 33 -18 73 -26 89 -8 16 -19 79 -25 140 -6 61 -17 140 -24 176 -22
107 -27 160 -16 160 6 0 11 9 11 20 0 11 -4 20 -10 20 -5 0 -10 -9 -10 -20 0
-11 -4 -20 -10 -20 -5 0 -10 9 -10 20 0 11 -4 20 -10 20 -5 0 -10 9 -10 20 0
13 7 20 20 20 14 0 20 7 20 21 0 17 -5 20 -37 17 -36 -3 -38 -5 -41 -40 -2
-21 -8 -38 -13 -38 -16 0 -109 -99 -109 -116 0 -9 -11 -29 -25 -46 -25 -29
-28 -39 -40 -110 -4 -29 -12 -39 -30 -44 -21 -5 -36 -24 -39 -46 -1 -4 -11
-16 -23 -28 -13 -11 -23 -25 -23 -30 0 -6 -6 -10 -14 -10 -9 0 -18 -22 -26
-65 -7 -36 -16 -68 -21 -71 -5 -3 -9 -16 -9 -28 0 -13 -7 -37 -15 -52 -8 -16
-15 -37 -15 -46 0 -9 -6 -21 -13 -25 -6 -4 -19 -21 -27 -38 -8 -16 -23 -37
-33 -45 -12 -10 -21 -35 -24 -65 -3 -28 -10 -52 -14 -55 -7 -5 -16 -59 -18
-110 -1 -8 -14 -28 -29 -45 -35 -37 -52 -84 -52 -143 0 -30 -6 -50 -17 -61
-13 -11 -19 -34 -20 -76 -1 -33 -7 -61 -13 -63 -5 -2 -10 -15 -10 -28 0 -13
-4 -24 -10 -24 -5 0 -10 -11 -10 -25 0 -14 -7 -28 -15 -31 -8 -4 -15 -11 -15
-16 0 -22 -55 -58 -87 -58 -22 0 -33 -5 -33 -14 0 -23 -17 -28 -33 -11 -10 10
-35 15 -68 15 -29 0 -80 6 -113 12 -47 10 -60 10 -64 0 -2 -7 -21 -12 -43 -12
-28 0 -39 -4 -39 -15 0 -11 -11 -15 -40 -15 -33 0 -40 3 -40 20 0 17 -7 20
-50 20 -27 0 -50 5 -50 10 0 6 -9 10 -20 10 -13 0 -20 7 -20 19 0 20 -34 31
-101 31 -22 0 -39 5 -39 10 0 6 -9 10 -20 10 -11 0 -20 7 -20 15 0 8 -4 15
-10 15 -5 0 -10 9 -10 20 0 13 -7 20 -20 20 -13 0 -20 7 -20 20 0 11 -4 20
-10 20 -5 0 -10 9 -10 20 0 11 -4 20 -10 20 -5 0 -10 9 -10 20 0 13 -7 20 -20
20 -16 0 -20 7 -20 30 0 23 -4 30 -20 30 -16 0 -20 7 -20 30 0 23 -4 30 -20
30 -17 0 -20 7 -20 40 0 33 -3 40 -20 40 -13 0 -20 7 -20 20 0 11 -4 20 -10
20 -5 0 -10 -4 -10 -10 0 -5 -4 -10 -10 -10 -5 0 -10 19 -10 41 0 29 -6 47
-19 58 -17 15 -20 34 -24 147 -4 130 -17 211 -35 223 -15 10 -21 131 -5 131 7
0 10 6 6 16 -3 9 -1 19 5 23 5 3 16 35 23 71 7 36 16 67 19 70 3 3 11 23 18
45 20 60 54 135 63 135 4 0 10 19 14 43 10 64 15 77 31 77 10 0 14 12 14 40 0
24 5 40 12 40 17 0 68 61 75 90 18 74 101 180 141 180 11 0 31 9 45 20 14 11
32 20 41 20 9 0 16 4 16 10 0 5 16 12 35 16 19 3 35 12 35 19 0 6 11 17 25 23
14 6 25 16 25 22 0 5 5 10 11 10 7 0 31 16 55 35 23 19 48 35 56 35 10 0 10 2
-1 9 -11 7 -10 10 4 18 11 7 18 24 19 48 2 26 9 42 22 50 87 53 142 94 172
127 20 22 63 61 97 86 33 25 73 58 89 74 15 15 37 28 47 28 9 0 20 9 24 19 3
10 16 22 29 25 13 3 31 17 40 31 9 14 21 25 26 25 6 0 26 16 45 36 19 19 39
33 45 29 5 -3 14 5 20 19 5 14 14 26 19 26 6 0 16 12 23 26 7 15 15 25 18 24
7 -4 91 40 107 55 7 8 13 19 13 25 0 28 30 40 100 40 67 0 73 2 104 33 18 18
36 46 40 63 22 90 28 107 35 95 12 -19 39 75 42 144 2 80 -7 109 -79 250 -47
92 -65 141 -78 210 -10 50 -21 92 -26 93 -4 2 -8 10 -8 18 0 8 -4 14 -9 14 -5
0 -7 20 -4 44 4 42 -12 111 -37 153 -19 34 -60 136 -60 149 0 8 -4 14 -8 14
-5 0 -15 19 -22 41 -8 23 -22 46 -32 53 -10 6 -18 21 -18 33 0 13 -8 24 -20
28 -11 3 -20 13 -20 21 0 8 -7 14 -16 14 -20 0 -53 36 -60 67 -4 13 -10 23
-15 23 -5 0 -9 7 -9 15 0 8 -4 15 -9 15 -5 0 -13 9 -16 20 -3 11 -13 20 -21
20 -8 0 -14 5 -14 10 0 6 -7 10 -15 10 -20 0 -56 37 -72 73 -11 23 -19 27 -53
27 -22 0 -40 5 -40 10 0 6 -9 10 -20 10 -11 0 -20 4 -20 9 0 5 -18 12 -40 16
-22 4 -46 13 -53 20 -25 25 -73 43 -131 50 -32 4 -53 11 -46 15 26 16 -31 23
-225 27 -110 3 -205 10 -212 15 -16 13 -215 42 -280 41 -45 -1 -53 2 -53 17 0
19 -35 30 -97 30 -21 0 -36 6 -39 15 -4 8 -15 15 -25 15 -12 0 -19 7 -19 18 0
10 -4 22 -10 28 -5 5 -11 27 -14 48 -3 22 -9 42 -13 45 -16 11 -52 97 -67 157
-21 82 -24 644 -4 644 4 0 7 8 6 18 -5 38 15 238 24 249 6 7 8 20 4 28 -3 9 1
18 9 21 10 4 15 20 15 50 0 24 4 44 8 44 5 0 17 28 27 63 17 59 22 71 44 116
6 10 10 76 10 147 1 70 6 166 12 213 16 118 2 261 -26 261 -45 0 -61 91 -65
378 -2 107 -4 122 -19 122 -24 0 -40 52 -42 136 -1 48 3 78 13 95 20 31 31
106 18 114 -25 16 -5 205 22 205 4 0 8 8 8 18 0 10 9 24 20 32 11 8 20 22 20
31 0 10 14 23 31 31 20 9 32 22 36 41 4 18 12 27 24 27 13 0 19 8 20 23 1 12
2 33 3 47 3 52 19 130 26 130 5 0 14 32 20 70 7 39 17 76 24 83 7 7 16 25 20
40 3 15 11 27 16 27 6 0 10 9 10 21 0 11 11 54 25 95 14 41 25 81 25 89 0 8 9
15 20 15 13 0 20 7 20 20 0 11 6 20 14 20 8 0 17 9 21 19 3 11 15 23 26 26 10
4 19 13 19 21 0 8 5 14 10 14 6 0 10 9 10 20 0 11 5 20 10 20 6 0 10 9 10 20
0 13 7 20 20 20 13 0 20 7 20 20 0 11 5 20 10 20 6 0 10 9 10 20 0 11 5 20 10
20 6 0 10 12 10 26 0 28 21 54 44 54 8 0 18 9 21 20 4 11 17 32 31 45 13 13
24 34 24 45 0 13 8 24 20 27 12 3 20 14 20 25 0 14 5 18 15 14 11 -4 21 5 32
29 9 19 20 35 25 35 4 0 8 9 8 20 0 12 7 20 16 20 8 0 33 18 54 40 21 22 48
40 59 40 14 0 21 6 21 20 0 30 45 67 89 75 23 4 41 11 41 16 0 5 9 9 20 9 13
0 20 7 20 20 0 13 7 20 20 20 11 0 20 5 20 10 0 6 7 10 15 10 29 0 61 22 85
61 20 32 30 39 56 39 23 0 34 6 39 19 4 13 19 20 54 25 26 3 56 13 67 21 10 8
34 15 52 15 17 0 32 5 32 10 0 6 7 10 16 10 19 0 44 24 44 42 0 12 42 42 83
60 9 4 17 14 17 23 0 8 9 15 20 15 11 0 20 5 20 10 0 6 14 10 30 10 17 0 30 5
30 10 0 6 12 10 26 10 14 0 32 6 40 14 8 8 34 18 59 22 25 3 45 10 45 15 0 5
6 9 14 9 8 0 16 4 18 9 2 4 64 11 139 15 124 7 138 6 154 -11 13 -13 20 -14
23 -5 6 18 20 14 27 -8 4 -13 15 -20 31 -20 13 0 24 -4 24 -9 0 -5 18 -11 40
-15 22 -3 40 -12 40 -19 0 -8 18 -13 51 -15 28 -1 59 -7 69 -12 10 -6 37 -10
60 -10 22 0 55 -7 72 -16 42 -22 71 -24 132 -8 76 20 115 20 175 1 30 -9 65
-17 78 -17 13 0 23 -4 23 -10 0 -6 30 -10 70 -10 40 0 70 4 70 10 0 6 38 10
95 10 52 0 95 -4 95 -9 0 -5 44 -12 98 -16 53 -4 99 -11 102 -16 5 -7 265 -29
346 -29 27 0 34 -4 34 -20 0 -16 7 -20 35 -20 22 0 38 -6 41 -15 7 -18 31 -20
37 -2 3 8 10 5 22 -10 12 -17 26 -23 56 -23 21 0 39 -4 39 -9 0 -9 39 -20 105
-28 22 -3 47 -11 55 -18 8 -7 44 -16 79 -20 40 -5 76 -16 97 -30 19 -13 52
-26 74 -30 22 -4 40 -12 40 -18 0 -5 3 -7 7 -4 3 4 16 1 29 -8 12 -8 44 -16
70 -19 27 -3 78 -10 114 -16 36 -5 78 -12 93 -14 16 -1 32 -7 35 -13 8 -12
114 -12 123 0 3 4 40 5 81 1 73 -6 76 -7 92 -40 8 -19 22 -34 30 -34 26 0 66
-23 66 -37 0 -15 9 -27 58 -79 18 -19 31 -38 28 -42 -7 -12 39 -62 58 -62 19
0 21 -16 4 -24 -10 -5 -10 -7 1 -12 7 -4 22 -17 34 -30 11 -13 24 -21 29 -18
4 3 8 1 8 -4 0 -8 11 -23 50 -69 5 -7 10 -17 10 -22 0 -6 8 -15 19 -20 10 -6
31 -35 47 -66 16 -30 35 -55 42 -55 6 0 12 -8 12 -17 1 -23 22 -62 35 -62 5 0
10 -15 11 -34 2 -18 14 -67 28 -109 14 -42 26 -90 26 -107 0 -21 5 -31 15 -31
8 0 15 -9 15 -20 0 -11 5 -20 10 -20 6 0 10 -9 10 -20 0 -11 5 -20 11 -20 6 0
9 -9 6 -20 -3 -11 -1 -20 4 -20 5 0 9 -9 9 -20 0 -11 4 -20 9 -20 15 0 101
-180 101 -211 0 -16 4 -29 9 -29 5 0 12 -16 15 -36 4 -19 14 -38 22 -41 9 -3
12 -12 9 -24 -5 -13 -2 -19 7 -17 8 2 13 -6 12 -19 0 -13 3 -23 8 -23 4 0 8
-10 9 -22 1 -22 1 -22 8 2 7 24 8 23 13 -10 13 -77 24 -105 40 -104 10 1 14
-4 11 -12 -4 -10 3 -14 21 -14 24 0 26 -4 26 -40 0 -22 5 -40 10 -40 6 0 10
-4 10 -10 0 -5 8 -18 18 -28 9 -11 25 -31 36 -45 10 -15 28 -29 40 -33 11 -4
47 -33 78 -65 38 -40 65 -59 81 -59 41 0 82 -27 97 -64 10 -26 21 -37 44 -42
32 -7 63 -28 117 -76 16 -16 36 -28 44 -28 9 0 12 -6 9 -15 -4 -8 14 -35 43
-67 48 -52 103 -143 103 -172 0 -8 7 -16 15 -20 8 -3 15 -12 15 -21 0 -8 5
-15 10 -15 6 0 10 -10 10 -22 0 -15 23 -46 60 -83 32 -33 59 -66 60 -74 0 -22
94 -191 105 -191 9 0 50 -70 57 -98 1 -4 7 -13 14 -19 7 -7 27 -35 45 -63 18
-27 38 -50 46 -50 7 0 13 -4 13 -10 0 -17 3 -24 14 -37 25 -28 32 -39 39 -55
3 -10 11 -18 17 -18 5 0 10 -11 10 -24 0 -33 10 -56 24 -56 6 0 22 -14 36 -31
14 -17 30 -37 37 -44 7 -7 9 -15 6 -19 -4 -3 1 -6 11 -6 10 0 19 -11 23 -30 3
-16 9 -30 14 -30 5 0 9 -8 9 -19 0 -10 9 -30 20 -44 11 -14 20 -30 20 -36 0
-6 9 -16 19 -23 10 -6 17 -17 15 -23 -3 -6 16 -29 40 -52 30 -27 49 -55 56
-82 6 -23 15 -41 20 -41 10 0 35 -76 33 -99 -1 -8 6 -20 15 -27 13 -9 16 -26
14 -78 -2 -52 1 -73 16 -94 27 -38 62 -115 62 -135 0 -9 6 -31 14 -49 8 -18
29 -69 47 -113 18 -44 37 -84 41 -89 4 -6 8 -20 8 -32 0 -12 8 -39 17 -60 19
-44 18 -42 34 -104 22 -87 40 -120 66 -120 12 0 23 -4 23 -10 0 -5 -9 -10 -19
-10 -15 0 -19 -7 -19 -30 1 -24 5 -30 23 -30 18 0 24 7 27 30 3 16 1 35 -4 42
-4 7 -8 48 -8 90 0 42 -4 80 -10 83 -5 3 -10 17 -10 30 0 13 -5 35 -11 49 -9
19 -9 29 0 40 9 11 10 20 2 35 -6 11 -11 48 -11 83 0 53 -6 73 -36 128 -25 44
-38 82 -40 115 -2 29 -10 55 -19 61 -8 6 -15 14 -15 18 0 16 30 36 54 36 14 0
26 5 26 10 0 6 9 10 20 10 11 0 20 7 20 15 0 8 -7 15 -16 15 -18 0 -44 23 -44
39 0 6 -4 11 -10 11 -5 0 -10 9 -10 20 0 11 -4 20 -10 20 -5 0 -10 9 -10 20 0
11 -4 20 -10 20 -5 0 -10 18 -10 40 0 22 -4 40 -10 40 -5 0 -10 14 -10 30 0
17 -4 30 -10 30 -5 0 -10 9 -10 19 0 11 -6 22 -12 25 -10 5 -10 7 0 12 6 3 12
19 12 35 0 19 5 29 15 29 10 0 16 16 21 50 4 28 10 50 15 50 4 0 10 9 14 20 3
10 20 34 38 52 33 34 57 87 57 126 0 12 5 22 10 22 6 0 10 5 10 12 0 19 33 88
43 88 5 0 22 14 37 30 17 18 40 31 57 32 15 1 41 10 56 19 21 12 38 15 65 9
20 -5 53 -7 72 -6 29 3 36 8 38 28 2 14 -4 32 -12 41 -30 30 -20 75 29 124 24
25 42 50 39 54 -3 5 0 9 5 9 13 0 15 52 2 66 -7 7 -30 76 -56 171 -5 16 -74
25 -120 15 -22 -4 -69 -8 -103 -7 -45 1 -65 -2 -69 -12 -3 -8 -21 -13 -43 -13
-35 0 -38 2 -44 38 -10 61 -7 84 13 101 30 26 62 100 59 134 -2 25 -10 36 -38
49 -19 9 -52 17 -74 18 -49 0 -114 36 -133 74 -14 27 -13 30 15 65 23 28 37
37 67 39 56 5 76 -3 127 -48 43 -37 48 -39 79 -29 79 25 159 91 159 131 0 13
-11 45 -25 72 -14 27 -25 62 -25 78 0 21 -6 29 -25 34 -14 3 -25 12 -25 20 0
8 -4 14 -10 14 -16 0 -60 42 -60 57 0 14 -38 73 -55 85 -10 7 9 13 29 9 14 -3
70 21 78 33 14 20 8 91 -10 123 -9 17 -30 55 -46 85 -17 29 -33 77 -37 108 -4
30 -12 72 -17 93 -7 24 -7 74 -1 139 4 55 7 104 4 108 -2 3 -6 34 -10 67 -3
37 -18 89 -36 130 -17 37 -35 95 -39 128 -7 60 -46 210 -77 295 -42 119 -53
155 -53 175 0 33 -89 250 -175 425 -55 113 -89 165 -125 191 -16 13 -30 28
-30 33 0 6 -13 21 -29 34 -17 13 -33 37 -36 53 -4 16 -18 41 -31 54 -14 14
-22 25 -20 25 3 0 -2 9 -11 20 -10 11 -23 20 -30 20 -6 0 -16 6 -20 14 -4 7
-19 19 -33 26 -14 7 -47 30 -75 50 -51 38 -57 40 -155 61 -50 10 -107 33 -120
48 -9 11 -76 31 -104 31 -14 0 -37 -6 -49 -14 -29 -19 -52 -21 -109 -12 -30 5
-48 13 -48 22 0 18 45 61 72 69 64 18 76 27 82 60 11 56 -1 80 -50 103 -24 12
-49 22 -55 22 -6 0 -17 6 -25 14 -7 8 -18 16 -24 18 -5 1 -10 29 -11 60 -2 47
-6 59 -21 64 -10 3 -30 16 -43 30 -20 20 -28 22 -49 14 -15 -5 -26 -14 -26
-20 0 -5 -16 -10 -35 -10 -19 0 -35 5 -35 10 0 6 -6 10 -13 10 -13 0 -47 50
-47 70 0 6 7 18 15 26 29 30 17 119 -23 162 -7 8 -10 23 -7 34 8 23 -11 48
-36 48 -11 0 -19 5 -19 10 0 6 -7 10 -16 10 -18 0 -44 23 -44 39 0 6 -19 11
-44 11 -42 0 -44 1 -49 38 -4 21 -2 38 3 40 13 5 13 42 0 42 -5 0 -10 9 -10
20 0 11 5 20 10 20 6 0 10 -4 10 -10 0 -6 30 -10 69 -10 46 0 71 -4 73 -12 3
-9 10 -8 22 5 18 17 18 19 0 39 -17 18 -28 20 -108 16 -57 -3 -91 -9 -94 -16
-2 -7 -17 -12 -33 -12 -22 0 -29 -5 -29 -20 0 -18 -7 -20 -79 -20 -55 0 -84 4
-94 14 -9 9 -50 17 -117 21 -86 7 -103 11 -107 25 -5 20 -37 32 -50 19 -11
-11 -133 13 -133 27 0 6 -15 23 -33 37 -32 24 -55 29 -271 54 -57 6 -76 21
-76 57 0 29 31 66 55 66 9 0 27 11 41 25 24 24 25 29 22 137 l-3 112 -45 16
c-25 9 -58 22 -73 28 -16 7 -34 12 -42 12 -7 0 -26 7 -41 15 -17 9 -56 15 -91
15 -60 0 -63 1 -63 24 0 24 -21 37 -67 41 -18 2 -23 -3 -23 -21 0 -17 -6 -24
-19 -24 -11 0 -22 -8 -26 -19 -5 -15 -13 -17 -55 -13 -28 2 -50 0 -50 -5 0 -5
-18 -9 -40 -10 -39 -2 -40 -1 -40 33 0 18 5 34 10 34 6 0 10 7 10 15 0 8 4 15
8 15 13 0 52 36 52 47 0 5 -12 15 -27 23 -16 7 -40 19 -55 26 -40 21 -111 18
-133 -6 -11 -12 -21 -16 -25 -10 -10 17 -52 -48 -45 -70 5 -17 15 -20 59 -20
50 0 53 -2 69 -35 22 -47 22 -55 -8 -81 -30 -26 -119 -38 -184 -25 -25 5 -51
7 -58 4 -7 -3 -13 2 -13 11 0 9 -4 16 -9 16 -12 0 -71 56 -71 68 0 5 -13 15
-30 22 -16 7 -30 16 -30 20 0 4 -13 10 -30 14 -16 3 -30 11 -30 17 0 24 -43
49 -85 49 -57 0 -100 17 -120 46 -8 13 -24 24 -35 24 -11 0 -20 4 -20 9 0 5
-37 12 -82 15 -121 8 -241 21 -259 30 -10 4 -52 2 -95 -5 -44 -7 -96 -13 -117
-13 -24 -1 -43 -7 -51 -18 -22 -30 -96 -29 -96 2 0 13 -7 20 -19 20 -11 0 -23
5 -26 10 -4 6 -32 8 -74 4 -56 -6 -73 -3 -109 15 -22 11 -58 21 -79 21 -33 0
-77 19 -93 40 -23 30 -79 36 -122 13z m2662 -543 c0 -13 -11 -13 -30 0 -12 8
-11 10 8 10 12 0 22 -4 22 -10z m-6960 -980 c0 -13 -7 -20 -20 -20 -22 0 -28
25 -7 33 22 10 27 7 27 -13z m1119 -174 c7 -8 15 -31 18 -51 5 -33 2 -40 -39
-78 -24 -23 -47 -50 -51 -59 -3 -10 -11 -18 -17 -18 -5 0 -10 -18 -10 -40 0
-22 -7 -57 -16 -78 -11 -27 -13 -53 -9 -95 l7 -58 42 45 c29 31 50 45 71 46
48 3 52 1 59 -26 6 -21 1 -33 -18 -53 -15 -15 -26 -36 -26 -47 0 -12 -9 -29
-20 -39 -11 -10 -20 -24 -20 -32 0 -24 -43 -107 -77 -150 -19 -23 -38 -55 -44
-71 -7 -20 -21 -32 -50 -43 -35 -13 -44 -22 -56 -59 -18 -53 -62 -97 -115
-113 -22 -7 -38 -18 -38 -27 0 -13 -1 -13 -10 0 -8 13 -10 12 -10 -2 0 -26
-17 -22 -24 5 -3 12 -6 62 -6 111 0 92 14 132 62 179 12 12 18 32 18 60 0 56
16 109 40 137 15 17 19 32 14 55 -5 28 -1 38 28 67 20 19 42 56 52 88 10 30
29 67 42 83 13 16 24 35 24 43 0 8 4 14 10 14 5 0 12 11 16 25 3 14 9 25 13
25 4 0 8 15 9 32 3 38 32 108 45 108 4 0 15 7 23 15 19 19 48 19 63 1z m-2319
-3413 c0 -26 0 -26 -20 -8 -16 14 -17 20 -8 27 22 13 28 9 28 -19z m-1020
-2667 c0 -24 -25 -54 -37 -43 -8 8 17 67 28 67 5 0 9 -11 9 -24z m4555 -1576
c5 0 17 -7 27 -17 26 -23 24 -46 -9 -102 -7 -12 -43 35 -43 56 0 13 -7 37 -15
52 -17 33 -9 47 15 26 9 -8 20 -15 25 -15z m411 -407 c6 -21 -4 -36 -70 -99
-52 -51 -84 -74 -100 -74 -14 0 -28 -4 -31 -10 -6 -10 -65 -14 -65 -5 0 13 74
91 104 110 14 9 28 25 31 35 3 11 15 22 25 25 10 3 22 15 25 25 12 37 72 32
81 -7z m-306 -214 c0 -5 5 -7 10 -4 6 4 1 -9 -9 -27 -11 -18 -30 -52 -41 -76
-21 -43 -50 -62 -93 -62 -16 0 -19 3 -8 9 7 5 10 14 7 20 -4 6 -1 17 6 25 7 7
20 24 28 36 8 12 21 28 28 36 6 7 12 19 12 28 0 13 9 17 53 25 4 0 7 -4 7 -10z
m6390 -1474 c0 -18 -4 -23 -15 -19 -8 4 -15 15 -15 25 0 10 7 19 15 19 9 0 15
-9 15 -25z"/>
<path d="M5330 25857 c-53 -21 -54 -22 -25 -27 28 -5 37 -2 68 26 7 6 19 13
27 17 13 5 13 5 0 6 -8 0 -40 -10 -70 -22z"/>
<path d="M23165 25760 c-187 -15 -466 -37 -620 -49 -213 -16 -297 -27 -350
-43 -38 -12 -74 -25 -80 -29 -5 -4 -113 -42 -240 -84 -126 -43 -295 -99 -374
-126 -156 -53 -163 -57 -331 -209 -52 -47 -122 -108 -155 -135 -56 -47 -214
-184 -225 -195 -3 -3 -38 -34 -78 -68 -74 -63 -102 -88 -202 -177 -30 -27 -85
-75 -120 -105 -99 -83 -188 -177 -210 -220 -11 -21 -24 -42 -30 -45 -6 -3 -19
-23 -31 -43 -18 -34 -31 -53 -89 -137 -12 -16 -31 -45 -43 -64 -28 -43 -59
-89 -241 -362 -139 -208 -309 -446 -329 -460 -5 -3 -16 -18 -25 -31 -9 -14
-37 -52 -62 -84 -76 -100 -88 -118 -114 -165 -13 -25 -32 -51 -40 -58 -9 -8
-16 -19 -16 -25 0 -10 -48 -87 -97 -156 -19 -27 -78 -118 -139 -215 -70 -112
-108 -170 -125 -190 -27 -31 -107 -236 -150 -380 -21 -71 -52 -167 -68 -212
-17 -45 -51 -153 -75 -240 -25 -87 -66 -212 -90 -279 -25 -67 -61 -183 -80
-258 -19 -75 -49 -176 -67 -224 -17 -48 -51 -154 -76 -237 -24 -82 -80 -262
-124 -398 -44 -137 -93 -292 -109 -345 -16 -54 -42 -127 -58 -162 -16 -36 -41
-103 -57 -150 -15 -47 -38 -105 -50 -130 -12 -25 -35 -83 -50 -130 -15 -47
-40 -110 -55 -140 -35 -69 -73 -195 -100 -325 -11 -55 -34 -150 -50 -210 -18
-68 -31 -149 -35 -208 -3 -53 -9 -118 -14 -144 -5 -27 -7 -78 -5 -116 4 -55
10 -75 34 -109 35 -48 40 -109 13 -148 -21 -29 -29 -161 -11 -193 19 -36 20
-308 2 -389 -9 -37 -20 -70 -25 -74 -5 -3 -7 -9 -4 -14 3 -5 0 -21 -6 -37 -7
-15 -13 -45 -15 -66 -1 -21 -5 -49 -8 -63 -4 -13 -2 -24 3 -24 18 0 39 29 45
65 4 20 16 51 27 68 10 18 19 47 19 65 0 18 11 54 24 80 13 26 26 65 29 86 4
22 10 42 15 45 11 7 52 98 52 115 0 6 6 22 13 36 7 14 21 52 32 85 68 215 99
295 117 295 4 0 8 7 8 16 0 9 11 37 24 63 14 25 36 78 50 118 14 40 36 94 49
120 13 26 32 80 43 118 10 39 35 102 55 141 20 39 42 88 49 110 7 21 18 48 25
59 6 11 31 79 55 150 23 72 49 142 56 157 8 15 13 30 12 35 -3 13 14 56 28 71
8 7 14 23 14 34 0 11 6 32 14 46 8 15 22 54 31 87 9 33 25 83 35 110 10 28 26
74 36 103 10 28 21 52 25 52 4 0 11 25 14 56 4 30 14 61 21 69 8 8 19 38 24
67 6 29 17 73 25 98 19 61 74 247 85 290 34 134 95 386 106 440 16 81 32 149
50 221 8 30 14 66 14 79 0 13 9 42 20 64 10 23 23 69 29 102 5 34 14 70 19 80
6 11 16 46 22 79 7 33 15 67 18 75 3 8 4 20 3 26 -1 7 5 14 14 18 8 3 15 13
15 23 0 10 9 35 20 56 11 20 20 44 20 52 0 20 31 85 53 110 37 43 43 52 58 95
39 105 73 177 100 211 33 42 75 125 109 214 12 33 26 67 31 75 5 8 12 22 15
30 3 8 10 22 15 30 5 8 16 29 24 46 16 36 44 72 96 124 19 19 38 42 42 50 24
49 84 131 143 197 38 42 84 92 101 112 18 20 33 42 33 49 0 6 5 12 11 12 5 0
51 42 102 93 51 50 111 105 135 121 23 16 58 46 76 66 19 21 58 56 87 78 30
23 72 61 93 87 22 25 45 45 52 45 24 0 70 31 110 75 23 25 46 45 52 45 5 0 16
7 23 16 14 17 128 94 140 94 4 0 31 23 60 51 57 53 143 109 170 109 9 0 24 9
34 20 10 11 26 20 36 20 10 0 22 6 26 13 4 7 19 18 33 25 14 7 43 23 65 37 22
14 54 32 71 40 17 9 42 27 55 41 12 13 33 24 46 24 13 0 26 6 29 14 3 8 20 17
39 20 18 4 38 13 45 21 7 8 18 15 25 15 7 0 18 6 24 14 6 7 39 21 74 31 34 9
67 21 72 25 6 4 33 11 60 15 60 8 134 32 155 50 8 7 75 27 149 45 74 17 151
41 170 51 29 16 57 19 152 19 64 0 138 4 165 9 27 5 225 11 439 12 335 3 396
1 435 -13 25 -9 74 -19 110 -23 36 -4 67 -11 71 -16 3 -5 76 -13 164 -18 87
-6 161 -14 164 -19 3 -5 35 -14 70 -20 35 -6 68 -16 75 -21 6 -5 35 -12 64
-16 32 -4 52 -12 52 -20 0 -17 23 -25 70 -25 24 0 40 -5 43 -14 3 -8 25 -20
49 -26 24 -7 48 -15 53 -20 6 -4 30 -10 55 -14 24 -4 48 -12 52 -19 4 -6 22
-12 40 -13 140 -6 254 -18 265 -29 7 -7 41 -16 75 -20 34 -4 67 -14 73 -21 9
-11 75 -33 112 -36 7 -1 17 -14 22 -29 7 -21 18 -29 45 -35 20 -3 36 -12 36
-20 0 -15 41 -87 52 -92 26 -11 158 -140 158 -153 0 -5 7 -6 15 -3 8 4 15 2
15 -4 0 -13 94 -62 120 -62 11 0 20 -6 20 -12 0 -7 14 -22 30 -33 16 -11 30
-23 30 -27 0 -5 6 -8 12 -8 7 0 29 -17 49 -37 60 -63 89 -83 120 -83 17 0 28
-4 25 -9 -6 -8 62 -41 85 -41 29 0 147 -57 171 -82 14 -15 34 -28 45 -28 10 0
25 -9 33 -20 10 -14 16 -16 22 -7 6 9 10 8 18 -3 7 -10 12 -12 18 -4 12 18 72
-3 72 -26 0 -13 7 -20 20 -20 11 0 20 -4 20 -10 0 -5 6 -10 14 -10 8 0 16 -5
18 -11 2 -6 27 -12 56 -12 34 -1 52 -5 52 -13 0 -29 31 -42 117 -49 48 -4 103
-13 122 -21 18 -8 48 -14 65 -14 17 0 46 -4 65 -10 18 -5 70 -12 114 -16 45
-3 87 -10 92 -14 6 -5 37 -16 70 -25 33 -10 70 -28 83 -41 13 -12 38 -26 55
-30 18 -3 34 -10 38 -15 3 -5 43 -11 90 -14 46 -3 98 -10 114 -15 17 -5 49
-11 71 -15 23 -3 51 -15 62 -26 12 -10 28 -19 37 -19 9 0 18 -6 21 -14 3 -8
17 -17 32 -21 32 -8 72 -43 72 -62 0 -8 5 -11 10 -8 6 3 37 -21 69 -54 33 -34
63 -61 68 -61 4 0 14 -9 20 -20 7 -11 27 -27 45 -36 46 -24 154 -136 172 -178
8 -20 44 -66 78 -102 35 -35 72 -82 83 -102 11 -21 38 -56 60 -78 22 -23 49
-59 60 -82 11 -23 23 -42 28 -42 4 0 7 -6 7 -13 0 -19 24 -67 33 -67 17 0 46
-46 52 -82 4 -23 12 -38 21 -38 8 0 14 -4 14 -10 0 -5 7 -10 15 -10 8 0 17
-12 20 -27 16 -76 40 -140 60 -160 12 -12 30 -41 40 -63 10 -22 22 -40 26 -40
14 0 49 -78 49 -109 0 -17 6 -50 14 -73 7 -24 21 -72 31 -108 9 -36 23 -83 31
-105 8 -23 14 -51 14 -63 0 -13 9 -40 20 -62 16 -31 20 -59 20 -138 0 -60 6
-118 15 -148 8 -27 20 -105 25 -174 12 -160 30 -322 36 -332 5 -8 21 -190 30
-328 3 -41 9 -97 14 -123 23 -111 1 -767 -30 -919 -6 -27 -15 -70 -20 -97 -6
-27 -15 -77 -20 -112 -16 -114 -50 -272 -70 -339 -12 -36 -29 -92 -40 -125
-10 -33 -26 -89 -35 -125 -24 -98 -45 -169 -66 -224 -11 -27 -19 -58 -19 -71
0 -12 -9 -55 -21 -96 -20 -73 -41 -160 -80 -334 -25 -111 -31 -137 -64 -250
-15 -49 -32 -117 -39 -150 -8 -33 -36 -148 -64 -255 -74 -288 -170 -687 -188
-782 -8 -45 -19 -96 -23 -113 -5 -16 -16 -75 -26 -130 -10 -55 -21 -109 -26
-120 -4 -11 -11 -40 -14 -65 -6 -43 -18 -108 -50 -280 -19 -96 -52 -253 -76
-355 -10 -44 -30 -145 -44 -225 -14 -79 -32 -172 -40 -205 -8 -33 -24 -100
-35 -150 -24 -104 -33 -139 -54 -215 -9 -30 -21 -77 -26 -105 -6 -27 -14 -66
-19 -85 -4 -19 -51 -123 -105 -230 -54 -107 -109 -224 -122 -259 -14 -34 -36
-84 -49 -109 -14 -26 -25 -52 -25 -58 0 -12 -33 -90 -75 -179 -13 -27 -33 -84
-44 -126 -10 -42 -43 -120 -72 -175 -87 -163 -89 -168 -89 -186 0 -19 -52
-139 -92 -213 -12 -22 -29 -53 -37 -70 -9 -16 -19 -32 -22 -35 -7 -6 -30 -72
-54 -155 -10 -33 -28 -72 -40 -87 -13 -15 -33 -58 -45 -95 -13 -37 -28 -75
-35 -83 -17 -20 -45 -88 -45 -109 0 -9 -8 -21 -19 -28 -20 -12 -26 -38 -40
-173 -5 -47 -16 -121 -25 -165 -24 -123 -84 -275 -110 -275 -7 0 -22 -11 -34
-25 -13 -14 -27 -23 -33 -20 -11 7 -10 115 2 115 4 0 11 21 14 48 3 26 10 55
16 64 14 27 11 53 -9 71 -10 10 -22 17 -27 17 -4 0 -13 7 -19 16 -14 19 -80
33 -125 26 -28 -4 -31 -8 -31 -38 0 -34 -16 -72 -35 -86 -6 -4 -9 -69 -8 -163
l3 -155 -25 0 c-14 0 -25 -4 -25 -9 0 -5 -15 -11 -32 -15 -42 -8 -88 -29 -88
-38 0 -5 -9 -8 -19 -8 -19 0 -31 -18 -31 -46 0 -8 -9 -34 -21 -58 -11 -25 -22
-52 -23 -60 -1 -9 -5 -19 -9 -22 -4 -4 -7 -19 -7 -34 0 -16 -11 -38 -26 -53
-21 -21 -25 -32 -19 -56 7 -32 37 -47 170 -86 33 -10 83 -26 110 -36 114 -42
126 -37 177 66 58 118 94 184 110 202 8 10 23 38 32 63 10 25 28 61 40 80 13
19 31 60 41 90 10 30 28 73 40 95 13 22 31 65 40 95 10 30 28 67 41 82 12 15
32 58 44 95 13 37 31 80 42 95 10 15 25 46 33 69 22 62 31 69 90 69 39 0 58 5
76 22 l24 22 -32 33 c-33 33 -34 47 -7 87 11 16 9 23 -8 46 -15 21 -19 37 -15
67 11 74 20 108 33 128 8 11 14 32 14 47 0 16 13 42 33 65 17 21 37 44 42 51
22 29 43 50 55 54 13 4 24 59 36 178 7 63 43 140 66 140 5 0 6 10 3 21 -4 12
-4 54 0 95 5 57 12 78 30 96 40 39 59 53 76 53 18 0 99 69 99 84 0 6 -8 16
-17 23 -24 18 -43 53 -43 78 0 29 47 118 86 164 19 22 34 49 34 60 0 12 11 34
25 50 14 16 25 34 25 41 0 6 11 26 24 43 13 18 26 54 30 82 7 53 44 109 64 96
18 -11 15 -138 -3 -162 -8 -10 -15 -30 -15 -43 0 -30 -39 -89 -63 -97 -32 -10
-86 -73 -97 -113 -8 -32 -7 -46 7 -75 l17 -36 88 0 c61 0 98 5 122 17 l35 16
-5 58 c-3 34 -1 60 6 64 5 3 10 16 10 28 0 12 13 36 29 54 41 47 67 119 52
147 -8 15 -11 77 -8 201 3 165 11 224 38 290 4 11 11 38 14 60 7 47 24 77 32
58 2 -7 13 -13 23 -13 34 0 43 -26 36 -98 -11 -94 -10 -102 15 -135 17 -24 19
-33 10 -53 -6 -13 -7 -33 -3 -44 31 -83 105 326 80 443 -8 38 -17 53 -41 68
-18 10 -44 19 -59 19 -47 0 -68 31 -68 99 0 67 12 106 42 139 23 23 64 30 70
10 2 -6 25 -12 53 -12 44 -1 50 2 64 29 9 17 19 31 24 33 4 2 7 10 7 18 0 27
47 104 63 104 3 0 7 -9 10 -20 3 -12 14 -20 26 -20 15 0 22 -9 27 -35 3 -19 3
-43 -1 -52 -25 -59 -43 -351 -24 -394 13 -32 30 -37 49 -14 7 8 26 15 41 15
31 0 41 15 53 76 12 62 41 149 52 156 6 4 15 32 18 62 5 33 13 56 22 60 8 3
14 13 14 22 0 10 6 25 13 33 7 9 19 36 26 61 21 72 30 90 66 135 19 23 35 47
35 54 0 7 7 26 16 43 9 17 20 72 24 122 4 50 15 114 25 142 9 28 15 67 13 85
l-3 34 -53 -1 c-61 -2 -109 -19 -122 -44 -5 -10 -23 -20 -40 -24 -16 -3 -43
-9 -60 -12 -25 -5 -30 -3 -36 20 -4 17 0 37 14 60 21 36 37 92 33 114 -2 14
16 56 47 104 24 37 141 143 161 144 9 1 30 2 46 3 26 1 28 3 12 12 -10 6 -35
9 -55 7 -35 -3 -37 -2 -40 30 -5 49 271 1173 373 1522 31 105 66 233 191 685
25 88 69 237 99 330 30 94 66 215 80 270 15 55 60 201 101 324 69 208 148 483
180 626 8 33 19 121 25 195 6 74 14 182 19 240 5 58 12 146 16 195 4 55 0 178
-10 315 -9 124 -18 279 -21 345 -3 66 -10 174 -15 240 -15 183 -29 397 -35
525 -3 63 -14 234 -25 380 -11 146 -22 308 -25 360 -2 52 -7 143 -11 203 l-7
107 -84 153 c-47 83 -131 233 -188 332 -83 147 -218 386 -353 626 -11 19 -53
93 -94 165 -41 71 -101 176 -133 234 -81 146 -84 149 -295 321 -19 15 -153
126 -296 246 -144 120 -341 283 -439 363 -97 80 -263 217 -368 305 -259 216
-310 253 -392 286 -16 7 -52 25 -80 40 -27 15 -108 58 -180 95 -71 36 -161 83
-200 103 -72 39 -414 214 -637 328 -113 58 -137 66 -225 78 -130 19 -279 34
-435 45 -70 5 -132 11 -137 14 -5 3 -67 10 -137 16 -173 13 -425 39 -444 46
-8 3 -67 9 -130 14 -217 17 -355 30 -415 40 -87 15 -273 31 -405 35 -70 2
-249 -7 -455 -25z"/>
<path d="M10068 25326 c-9 -9 -26 -16 -37 -16 -16 0 -21 -6 -21 -25 0 -24 3
-25 55 -25 30 0 55 -4 55 -10 0 -5 7 -10 15 -10 8 0 15 -4 15 -10 0 -5 20 -10
45 -10 32 0 45 -4 45 -14 0 -23 81 -31 118 -12 17 9 39 13 49 10 11 -3 9 0 -5
8 -12 8 -20 16 -18 19 3 3 -11 11 -32 18 -20 7 -55 21 -77 31 -71 32 -136 50
-160 46 -13 -3 -25 0 -27 6 -2 6 -11 4 -20 -6z"/>
<path d="M4280 21430 c0 -5 5 -10 10 -10 6 0 10 5 10 10 0 6 -4 10 -10 10 -5
0 -10 -4 -10 -10z"/>
<path d="M9470 20029 c-74 -5 -160 -14 -190 -19 -168 -33 -222 -40 -293 -40
-82 0 -205 -23 -247 -46 -14 -8 -71 -25 -126 -38 -56 -13 -115 -31 -132 -40
-17 -9 -37 -16 -44 -16 -7 0 -35 -11 -63 -25 -27 -13 -55 -25 -61 -25 -5 0
-40 -15 -77 -34 -37 -18 -94 -39 -127 -46 -39 -8 -64 -19 -71 -31 -5 -11 -16
-16 -24 -13 -8 4 -15 2 -15 -4 0 -5 -15 -13 -33 -16 -18 -3 -50 -21 -70 -40
-21 -19 -53 -37 -72 -40 -19 -4 -41 -13 -49 -21 -8 -8 -21 -15 -29 -15 -8 0
-22 -12 -32 -26 -9 -14 -23 -23 -30 -20 -16 6 -122 -95 -135 -129 -6 -15 -18
-25 -29 -25 -21 0 -37 -16 -42 -44 -2 -11 -18 -26 -36 -35 -17 -9 -38 -31 -47
-48 -10 -21 -23 -33 -35 -33 -11 0 -36 -16 -55 -35 -20 -19 -41 -35 -46 -35
-5 0 -21 -11 -36 -25 -15 -14 -32 -25 -38 -25 -12 -1 -66 -108 -66 -132 0 -9
-7 -21 -15 -28 -8 -7 -15 -19 -15 -26 0 -8 -4 -14 -10 -14 -5 0 -10 -5 -10
-11 0 -6 -16 -26 -36 -44 l-36 -34 -3 -295 c-2 -163 0 -296 5 -296 4 0 9 -26
12 -58 3 -50 9 -63 36 -90 18 -18 42 -32 52 -32 13 0 20 -7 20 -20 0 -16 7
-20 38 -20 26 0 42 6 52 20 12 17 26 20 82 20 39 0 68 4 68 10 0 6 23 10 50
10 28 0 50 5 50 10 0 6 14 10 30 10 17 0 30 5 30 10 0 6 9 10 20 10 13 0 20 7
20 18 0 10 9 24 20 32 11 8 20 22 20 32 0 10 5 18 10 18 6 0 10 7 10 16 0 8 6
22 14 30 16 16 86 19 86 4 0 -5 11 -10 24 -10 13 0 27 -6 29 -12 3 -7 6 -3 6
10 1 13 7 22 17 22 13 0 15 -13 10 -92 -3 -51 -8 -119 -11 -151 -8 -65 6 -111
36 -128 12 -6 19 -21 19 -39 0 -16 7 -35 15 -44 8 -8 15 -19 15 -25 0 -6 16
-41 35 -78 19 -37 35 -73 35 -79 0 -21 47 -36 68 -21 6 5 12 6 12 2 0 -4 16 2
36 14 43 25 119 29 128 6 3 -9 3 -36 -1 -60 -4 -31 -2 -45 6 -45 6 0 11 -4 11
-10 0 -5 -11 -10 -25 -10 -14 0 -25 -4 -25 -10 0 -5 5 -10 10 -10 6 0 10 -6
10 -12 0 -9 21 -14 63 -16 92 -5 104 -7 119 -19 7 -6 31 -15 53 -19 22 -4 42
-10 45 -15 3 -4 21 -10 41 -14 27 -5 40 -2 53 10 14 15 42 18 189 19 223 3
392 28 467 67 19 11 43 19 53 19 10 0 52 11 95 24 137 44 248 76 260 76 7 0
31 8 55 19 80 35 98 41 121 41 13 0 26 6 29 14 3 8 24 20 46 27 23 7 41 19 44
30 3 10 17 23 31 29 15 5 29 17 32 25 4 8 12 15 19 15 8 0 17 9 20 21 4 12 16
30 27 41 18 18 18 22 5 35 -21 22 -97 9 -97 -17 0 -19 -41 -30 -118 -30 -25 0
-50 -6 -58 -15 -10 -10 -36 -15 -77 -15 -86 0 -137 -10 -137 -26 0 -11 -22
-14 -97 -14 -67 0 -106 -5 -123 -15 -46 -26 -54 -29 -57 -18 -5 13 -71 6 -90
-9 -6 -5 -17 -8 -25 -7 -7 1 -26 -3 -41 -9 -16 -7 -39 -12 -52 -12 -13 0 -31
-8 -40 -17 -14 -13 -37 -17 -114 -17 -53 0 -98 -3 -101 -7 -6 -9 -41 -13 -87
-11 -26 2 -33 6 -33 22 0 16 -7 20 -32 21 -18 1 -36 1 -40 0 -5 0 -8 8 -8 19
0 11 5 20 10 20 6 0 10 -4 10 -10 0 -5 5 -10 10 -10 6 0 10 9 10 21 0 19 1 19
16 5 14 -14 17 -14 30 -1 8 8 30 18 49 24 37 10 105 72 105 96 0 8 4 15 9 15
5 0 12 8 16 19 3 10 14 28 24 40 17 19 27 21 182 19 168 -2 289 14 289 38 0
12 53 24 113 24 26 0 46 8 68 28 17 15 32 26 32 24 1 -2 35 11 76 28 41 18 82
33 92 35 11 2 29 11 41 19 18 13 22 24 19 61 -1 27 2 45 8 45 6 0 11 7 11 15
0 8 5 15 10 15 6 0 10 7 10 15 0 8 10 16 23 16 22 2 49 4 78 7 9 1 24 18 35
38 11 21 35 44 57 55 20 11 37 26 37 33 0 8 9 16 20 19 12 3 20 14 20 27 0 13
8 24 20 27 11 3 20 11 20 19 0 7 11 21 24 29 13 9 26 25 29 35 4 15 14 20 41
20 27 0 36 4 36 16 0 14 3 14 15 4 10 -9 15 -9 15 -1 0 6 5 11 12 11 24 0 117
96 123 128 19 92 44 112 147 120 53 4 80 11 100 26 15 12 27 25 27 29 1 11
-65 73 -84 81 -19 7 -20 70 -1 85 8 7 11 22 8 38 -3 18 -1 24 7 19 6 -4 11 -1
11 7 0 18 -21 27 -63 27 -18 0 -90 30 -180 75 -130 66 -159 77 -230 86 -45 6
-111 17 -146 25 -91 22 -149 27 -296 27 -90 -1 -145 -6 -180 -17 -27 -9 -60
-16 -73 -16 -12 0 -30 -4 -40 -9 -37 -20 -379 -91 -440 -91 -25 0 -35 -5 -39
-19 -4 -18 -30 -31 -60 -31 -30 0 -2 133 34 166 14 13 37 26 53 29 16 3 40 17
55 31 14 13 32 24 39 24 15 0 56 37 56 50 0 6 11 10 24 10 13 0 35 9 48 20 14
10 28 16 32 13 7 -7 126 115 126 129 0 5 11 13 25 18 14 5 25 14 25 19 0 5 10
13 23 17 12 4 32 17 43 30 14 15 38 25 70 29 27 3 76 13 110 21 33 8 92 14
131 14 42 0 73 4 75 11 2 7 85 11 243 14 306 4 354 13 295 55 -11 8 -20 24
-20 36 0 15 -12 26 -40 39 -22 10 -40 21 -40 25 0 17 -70 23 -345 30 -159 5
-312 10 -340 13 -27 3 -111 1 -185 -4z m303 -1305 c17 -3 42 -7 55 -10 45 -9
20 -71 -69 -166 -26 -27 -45 -38 -65 -38 -53 0 -59 12 -57 95 2 62 7 82 25
106 18 23 29 28 51 24 15 -3 42 -7 60 -11z m-1115 -319 c6 -91 25 -178 43
-196 27 -27 81 -139 75 -155 -3 -7 -18 -20 -34 -28 -32 -17 -110 -11 -232 17
-160 37 -174 45 -152 90 6 12 21 50 33 84 12 34 32 77 45 95 13 17 24 37 24
42 1 17 44 66 71 81 13 7 47 13 74 12 l50 -2 3 -40z m768 -227 c4 -7 -12 -29
-40 -55 -36 -33 -55 -43 -80 -43 -19 0 -39 -7 -46 -16 -16 -18 -75 -44 -101
-44 -12 0 -19 7 -19 20 0 13 7 20 20 20 13 0 20 7 20 20 0 14 9 21 35 26 23 4
35 12 35 23 0 11 20 23 68 38 79 25 98 27 108 11z m-376 -165 c0 -2 -7 -11
-15 -19 -13 -14 -15 -13 -15 10 0 18 4 24 15 20 8 -4 15 -8 15 -11z m-775
-403 c-3 -5 -13 -10 -21 -10 -20 0 -18 -18 4 -22 9 -3 0 -6 -20 -9 -32 -4 -38
-2 -38 13 0 10 -4 18 -10 18 -5 0 -10 5 -10 10 0 6 23 10 51 10 31 0 48 -4 44
-10z m350 0 c-28 -12 -45 -12 -45 0 0 6 15 10 33 9 27 0 29 -2 12 -9z"/>
<path d="M20533 19710 c-13 -5 -23 -16 -23 -25 0 -10 -10 -15 -32 -15 -37 -1
-78 -25 -56 -33 7 -3 2 -6 -11 -6 -15 -1 -21 -6 -18 -14 4 -11 -5 -12 -43 -6
-55 9 -159 -3 -168 -18 -7 -11 -66 -27 -162 -44 -30 -5 -59 -14 -65 -18 -5 -5
-44 -11 -85 -13 -58 -3 -90 -11 -140 -35 -36 -17 -97 -43 -136 -58 -48 -18
-79 -37 -93 -56 -12 -16 -28 -29 -35 -29 -7 0 -19 -7 -26 -15 -7 -9 -19 -14
-27 -11 -8 3 -17 -2 -20 -12 -3 -9 -14 -26 -25 -38 -13 -15 -17 -29 -12 -51 5
-25 12 -32 38 -37 18 -4 47 -1 65 5 25 9 48 8 104 -4 174 -38 170 -37 207 -18
44 22 140 26 140 6 0 -8 17 -19 40 -25 22 -6 39 -16 37 -22 -1 -5 6 -12 15
-13 10 -2 25 -10 33 -19 9 -9 28 -19 42 -22 14 -4 52 -33 84 -65 33 -32 70
-61 84 -65 13 -3 29 -12 36 -20 6 -8 18 -14 25 -14 8 0 14 -4 14 -8 0 -5 25
-15 55 -22 44 -11 66 -24 113 -69 65 -63 91 -109 70 -122 -7 -5 -16 -9 -20 -9
-14 0 -8 -20 14 -45 15 -17 32 -25 55 -25 18 0 33 -4 33 -10 0 -5 10 -10 23
-10 12 0 32 -13 46 -30 13 -17 33 -30 45 -30 12 0 38 -11 58 -25 22 -15 51
-25 73 -25 35 0 266 -102 273 -121 2 -5 9 -15 16 -22 29 -29 26 -46 -10 -53
-19 -3 -49 -3 -67 0 -17 4 -41 7 -51 7 -11 0 -27 4 -37 10 -26 14 -732 21
-864 8 -60 -6 -137 -17 -171 -25 -33 -8 -76 -14 -95 -14 -19 0 -75 -13 -124
-29 -50 -16 -110 -32 -135 -36 -25 -4 -55 -16 -67 -27 -12 -11 -26 -18 -31
-15 -4 4 -37 -23 -73 -59 -35 -36 -81 -75 -102 -87 -42 -24 -67 -61 -67 -102
0 -22 4 -25 33 -25 58 0 77 -10 77 -39 0 -19 -10 -35 -32 -51 -50 -37 -139
-80 -165 -80 -17 0 -23 -6 -23 -23 0 -29 55 -114 78 -121 34 -11 148 -9 187 3
22 7 74 11 115 9 72 -3 75 -4 76 -28 3 -92 2 -90 35 -90 17 0 40 5 52 12 12 6
39 13 60 14 21 1 44 7 51 13 7 6 16 7 20 3 5 -4 6 25 5 64 l-4 72 60 63 c92
96 107 110 150 137 22 14 42 28 45 32 12 18 55 31 115 37 74 7 117 -11 110
-47 -7 -36 -57 -139 -76 -156 -28 -25 -27 -181 1 -239 11 -22 19 -51 20 -64 1
-70 62 -196 112 -227 20 -13 39 -28 43 -34 10 -16 105 -62 148 -72 20 -4 54
-12 75 -16 20 -5 52 -16 70 -26 19 -10 68 -20 118 -23 79 -6 86 -8 95 -31 5
-14 8 -27 5 -29 -2 -2 -28 0 -58 6 -30 5 -73 7 -95 4 -28 -4 -52 0 -74 11 -17
9 -42 16 -55 16 -12 0 -45 12 -73 26 -28 14 -73 31 -99 38 -26 8 -60 18 -77
24 -16 6 -49 16 -72 22 -23 6 -55 21 -70 34 -15 13 -40 26 -55 30 -17 4 -28
13 -28 23 0 10 -12 29 -26 43 -14 14 -36 41 -48 60 -12 20 -31 36 -44 38 -13
2 -26 10 -29 18 -4 10 -24 14 -74 14 -92 0 -115 -18 -102 -81 8 -40 13 -45 75
-79 58 -31 119 -79 196 -152 24 -23 73 -44 132 -57 19 -4 86 -33 147 -64 62
-32 121 -57 132 -57 36 0 51 -12 51 -41 0 -31 29 -99 42 -99 18 0 6 -38 -14
-46 -19 -6 -16 -8 20 -11 34 -3 42 -8 42 -24 0 -14 7 -19 25 -19 14 0 25 -6
25 -14 0 -15 68 -26 168 -26 34 0 62 -4 62 -10 0 -5 5 -10 11 -10 7 0 19 -9
28 -19 31 -35 94 -44 276 -37 201 8 245 13 245 31 0 7 19 15 49 19 27 4 51 11
53 18 5 14 91 14 96 -1 6 -18 22 -13 22 7 0 10 9 24 20 32 12 8 20 26 20 42 0
15 5 28 10 28 6 0 10 9 10 20 0 11 5 20 10 20 6 0 10 14 10 30 0 17 5 30 10
30 6 0 10 9 10 20 0 15 7 20 28 20 16 0 32 3 35 7 4 3 18 8 32 9 43 5 85 28
85 46 0 10 5 18 10 18 6 0 10 7 10 15 0 24 22 65 36 65 7 0 14 5 16 12 3 8 26
8 94 0 119 -16 192 -15 208 1 21 21 46 74 46 98 0 12 10 30 22 41 18 16 21 28
20 81 -1 34 -6 63 -12 65 -5 2 -10 28 -10 58 0 30 -4 54 -9 54 -5 0 -11 17
-15 39 -3 21 -13 51 -21 67 -17 32 -20 214 -4 214 5 0 9 10 9 23 0 12 9 29 20
37 15 11 20 26 20 62 0 26 5 48 10 48 6 0 10 9 10 20 0 11 5 20 10 20 6 0 10
14 10 30 0 23 4 30 20 30 16 0 20 7 20 30 0 23 4 30 20 30 17 0 20 7 20 50 0
28 5 50 10 50 6 0 10 9 10 19 0 11 4 21 9 23 4 2 11 128 14 280 l6 277 -30 31
c-24 24 -39 30 -73 30 -48 0 -79 26 -115 97 -11 23 -29 44 -38 47 -10 4 -29
23 -43 42 -47 69 -115 136 -180 180 -36 24 -83 57 -105 74 -22 16 -53 32 -70
36 -35 8 -207 92 -258 127 -19 13 -59 45 -89 70 -30 26 -70 53 -90 61 -19 8
-41 22 -48 31 -8 9 -39 30 -71 45 -67 34 -140 42 -219 24 -74 -18 -161 -17
-196 1 -16 8 -55 17 -87 21 -31 4 -60 11 -63 15 -3 5 -14 9 -24 9 -10 0 -20 5
-22 11 -7 21 -232 36 -275 19z m-724 -457 c28 -16 43 -53 22 -53 -30 0 -71 15
-71 25 0 8 -6 16 -12 18 -10 4 -9 8 2 16 20 14 23 14 59 -6z m1606 -1685 c14
-6 25 -16 25 -22 0 -5 17 -39 39 -75 22 -38 41 -85 44 -111 3 -25 13 -59 21
-75 31 -59 17 -114 -33 -134 -16 -7 -31 -21 -34 -31 -3 -12 -18 -21 -43 -26
-22 -4 -42 -11 -45 -16 -10 -15 -106 -22 -138 -9 -43 18 -44 42 -2 86 42 46
71 134 97 295 23 147 19 141 69 118z"/>
<path d="M552 19507 c-1 -10 -6 -15 -12 -12 -6 4 -11 -8 -11 -27 -2 -46 -6
-70 -14 -90 -5 -13 -2 -18 9 -18 12 0 16 10 16 39 0 22 5 41 11 43 6 2 9 20 6
43 -2 22 -4 32 -5 22z"/>
<path d="M510 19325 c-1 -16 -2 -47 0 -69 1 -27 -1 -36 -10 -31 -8 5 -11 1 -9
-11 2 -11 -1 -30 -5 -43 -5 -13 -4 -27 2 -33 7 -7 7 -19 2 -34 -5 -13 -6 -24
-1 -24 10 0 21 49 21 91 0 15 7 34 15 43 16 16 21 66 6 66 -6 0 -12 17 -14 38
-3 34 -4 35 -7 7z"/>
<path d="M780 18890 c0 -5 5 -10 10 -10 6 0 10 5 10 10 0 6 -4 10 -10 10 -5 0
-10 -4 -10 -10z"/>
<path d="M25285 18323 c-11 -2 -29 -8 -40 -13 -11 -5 -37 -11 -57 -15 -23 -3
-38 -11 -38 -20 0 -8 -11 -20 -24 -27 -34 -19 -96 -76 -96 -88 0 -25 -29 -37
-105 -44 -52 -5 -83 -12 -88 -21 -4 -8 -24 -17 -45 -21 -62 -11 -111 -41 -117
-72 -9 -40 -34 -88 -61 -113 -13 -12 -24 -28 -24 -36 0 -7 -4 -13 -9 -13 -14
0 -23 -31 -26 -95 -2 -32 -8 -61 -14 -63 -6 -2 -11 -19 -11 -37 0 -19 -4 -37
-10 -40 -5 -3 -10 -24 -10 -46 0 -28 -4 -39 -15 -39 -12 0 -15 -13 -15 -60 0
-49 -3 -60 -16 -60 -13 0 -15 -7 -10 -31 6 -30 -10 -59 -32 -59 -6 0 -16 -24
-23 -52 -11 -48 -28 -78 -44 -78 -12 0 -35 -29 -35 -44 0 -9 -4 -16 -10 -16
-5 0 -10 -9 -10 -20 0 -16 -7 -20 -30 -20 -33 0 -43 -25 -12 -33 16 -4 16 -5
0 -6 -10 0 -18 -5 -18 -11 0 -5 -7 -10 -15 -10 -14 0 -35 -56 -35 -92 0 -12
-8 -18 -23 -18 -26 0 -63 -36 -44 -43 7 -2 -8 -23 -33 -47 l-45 -43 -7 -151
c-3 -83 -7 -160 -7 -172 -1 -11 -10 -30 -21 -42 -15 -15 -20 -35 -20 -72 0
-45 4 -55 35 -86 30 -30 35 -32 35 -14 0 14 7 20 21 20 15 0 19 5 15 15 -9 25
5 105 20 105 7 0 16 9 19 20 3 11 15 20 25 20 10 0 21 6 24 13 5 10 7 10 12 0
3 -8 24 -13 51 -13 39 0 49 5 83 40 21 22 46 40 54 40 29 0 96 -75 96 -106 0
-29 -46 -90 -84 -111 -14 -8 -19 -22 -19 -54 0 -24 5 -45 12 -47 6 -2 11 -12
11 -23 0 -10 4 -19 9 -19 5 0 13 -9 16 -20 4 -13 15 -20 31 -20 15 0 24 -6 24
-16 0 -8 7 -22 15 -30 8 -9 15 -22 15 -30 0 -8 -7 -17 -15 -20 -8 -4 -15 -15
-15 -25 0 -10 -6 -19 -14 -19 -18 0 -25 -42 -18 -109 5 -54 9 -62 44 -101 9
-10 20 -34 23 -53 8 -39 13 -48 40 -63 11 -6 26 -24 35 -40 9 -16 30 -36 48
-44 17 -8 32 -23 32 -32 0 -46 171 -158 240 -158 23 0 30 -4 30 -19 0 -20 26
-32 98 -46 17 -4 32 -12 32 -18 0 -21 34 -33 103 -36 66 -2 67 -2 67 23 0 39
18 70 49 84 44 20 124 32 138 20 7 -5 21 -7 33 -3 28 9 209 -14 241 -31 56
-28 125 -50 231 -73 26 -6 61 -17 77 -26 36 -18 196 -21 207 -4 12 20 181 6
235 -19 43 -20 58 -21 178 -15 125 6 133 5 162 -16 35 -26 179 -43 179 -21 0
7 8 10 20 7 13 -3 25 2 35 16 8 12 15 16 15 9 0 -17 11 -15 39 9 19 15 25 30
24 57 -1 20 -6 38 -12 40 -6 2 -11 16 -11 32 0 20 -6 31 -20 35 -17 5 -20 15
-20 57 0 43 4 54 30 78 17 15 30 35 30 44 0 9 5 16 10 16 6 0 10 23 10 51 0
38 -5 56 -19 68 -16 14 -20 36 -24 141 -9 200 -19 230 -71 230 -14 0 -26 5
-26 10 0 6 -9 10 -20 10 -11 0 -29 9 -40 20 -11 11 -24 20 -29 20 -6 0 -16 8
-23 19 -14 20 -78 55 -120 65 -21 5 -30 1 -42 -16 -25 -35 -20 -71 14 -103 33
-32 38 -65 14 -89 -34 -34 -72 -14 -109 56 -15 29 -33 60 -39 68 -14 17 -36
67 -36 80 0 6 7 10 15 10 8 0 15 9 15 20 0 20 -19 19 -46 -2 -19 -14 -96 26
-141 75 -23 25 -44 43 -46 40 -3 -2 -5 6 -5 19 0 35 -7 58 -18 59 -5 1 -20 6
-34 13 -74 37 -138 65 -160 70 -14 3 -46 27 -73 54 -46 47 -47 49 -39 92 12
70 5 87 -63 156 -61 62 -64 64 -113 64 -58 0 -64 6 -56 49 6 26 11 31 35 31
27 0 69 -30 69 -49 0 -4 42 -11 93 -14 87 -6 98 -9 215 -67 67 -33 132 -60
143 -60 27 0 75 -26 82 -45 4 -8 17 -15 29 -15 13 -1 34 -7 48 -15 14 -8 49
-14 78 -15 44 0 57 4 80 27 17 17 22 28 14 31 -7 2 -12 12 -12 23 0 12 -7 19
-20 19 -15 0 -20 7 -20 25 0 14 -4 25 -10 25 -15 0 -12 20 7 38 12 12 18 13
21 4 2 -6 12 -12 23 -12 10 0 19 -4 19 -10 0 -5 9 -10 20 -10 11 0 20 -4 20
-10 0 -5 7 -10 15 -10 8 0 15 -4 15 -10 0 -5 9 -10 20 -10 11 0 20 -4 20 -9 0
-5 20 -17 45 -28 25 -10 45 -24 45 -30 0 -7 6 -13 13 -13 31 0 77 -74 77 -124
0 -31 3 -36 23 -36 12 0 29 -9 37 -20 8 -11 20 -20 27 -20 7 0 13 -9 13 -20 0
-13 7 -20 20 -20 13 0 20 -7 20 -18 0 -10 9 -24 20 -32 12 -8 20 -26 20 -42 0
-15 5 -28 10 -28 6 0 10 -13 10 -29 0 -18 11 -41 31 -62 16 -18 33 -45 36 -61
3 -15 12 -28 19 -28 8 0 14 -4 14 -10 0 -5 9 -10 20 -10 13 0 20 -7 20 -20 0
-11 4 -20 9 -20 15 0 22 -31 15 -66 -6 -34 -7 -34 -60 -34 l-54 0 0 -40 c0
-38 2 -40 30 -40 17 0 30 5 30 10 0 6 14 10 30 10 23 0 30 -4 30 -20 0 -13 7
-20 20 -20 11 0 20 -4 20 -10 0 -5 11 -10 25 -10 14 0 25 -4 25 -10 0 -5 9
-10 19 -10 16 0 21 -9 26 -42 10 -67 11 -72 19 -95 4 -13 14 -23 22 -23 8 0
14 -5 14 -11 0 -18 50 -60 79 -66 51 -12 111 -7 127 9 9 9 21 36 26 60 12 52
29 441 21 482 -3 16 -6 40 -8 55 -1 14 -8 53 -15 86 -8 39 -11 108 -7 196 4
115 3 139 -10 152 -25 25 -34 107 -16 138 22 36 12 80 -43 189 -32 65 -53 94
-74 105 -16 8 -35 25 -41 38 -7 12 -19 28 -28 35 -37 29 -92 62 -105 62 -8 0
-17 9 -21 19 -5 18 -40 38 -57 33 -4 -1 -13 8 -19 21 -7 12 -17 25 -22 29 -6
4 -16 25 -23 48 -9 32 -9 43 0 53 42 41 14 166 -45 201 -35 21 -69 71 -69 102
0 20 -70 94 -89 94 -4 0 -25 14 -46 30 -21 17 -45 30 -54 30 -9 1 -34 9 -56
20 -22 11 -45 19 -52 20 -6 0 -35 27 -64 60 -29 32 -64 63 -78 68 -14 6 -47
17 -73 27 -26 9 -46 22 -45 28 1 9 -48 13 -178 17 -179 6 -198 9 -292 51 -24
10 -50 19 -59 19 -9 0 -44 7 -77 16 -38 10 -156 21 -302 29 -236 12 -295 22
-295 51 0 7 -19 15 -42 19 -24 3 -50 8 -58 9 -8 2 -24 2 -35 -1z m575 -1654
c0 -5 4 -8 8 -5 4 2 14 0 22 -5 13 -8 13 -10 1 -18 -15 -10 -55 3 -81 26 -12
11 -9 13 18 13 18 0 32 -5 32 -11z m-690 -294 c10 -12 10 -19 2 -27 -7 -7 -12
-22 -12 -34 0 -12 -8 -32 -18 -45 -33 -44 -48 -103 -51 -199 -1 -52 -7 -100
-12 -106 -16 -19 -48 -4 -83 40 -38 47 -46 74 -53 168 -4 64 -3 70 32 123 41
62 44 64 83 71 15 3 31 9 37 15 14 14 61 11 75 -6z m1126 -381 c39 -18 94
-106 94 -148 0 -28 -32 -100 -50 -111 -6 -4 -8 -10 -5 -15 3 -4 -1 -38 -9 -74
-10 -47 -21 -74 -40 -91 -14 -13 -26 -28 -26 -34 0 -5 -16 -18 -35 -30 -31
-18 -41 -19 -92 -10 -39 7 -69 7 -97 0 -23 -5 -88 -12 -145 -15 -81 -4 -110
-2 -133 10 -16 8 -27 20 -24 27 3 7 9 19 12 28 6 17 67 29 147 29 24 0 37 5
37 13 0 7 13 20 29 28 15 8 60 38 99 68 90 67 155 171 167 266 10 85 12 87 71
59z m-799 -390 c12 -3 25 -15 28 -25 4 -10 11 -19 16 -19 6 0 18 -7 26 -16 14
-13 14 -17 2 -25 -8 -5 -20 -7 -27 -4 -8 3 -33 5 -57 5 -32 0 -44 5 -49 18 -3
9 -8 22 -11 28 -7 13 21 44 38 44 7 0 22 -3 34 -6z"/>
<path d="M13163 18272 c-6 -4 -13 -25 -16 -47 -12 -86 -20 -111 -39 -126 -17
-13 -19 -23 -14 -53 4 -20 11 -36 16 -36 20 0 60 20 60 31 0 6 9 23 19 38 28
38 36 94 21 146 -12 44 -28 59 -47 47z"/>
<path d="M17252 17758 c-14 -14 -16 -78 -2 -78 6 0 10 9 10 20 0 11 6 20 14
20 9 0 12 8 8 25 -5 28 -12 31 -30 13z"/>
<path d="M13655 17706 c-4 -30 -3 -62 3 -72 5 -11 13 -44 17 -74 4 -30 14 -71
21 -90 15 -36 14 -184 -1 -292 -7 -46 -5 -51 47 -124 29 -42 74 -97 99 -123
55 -54 91 -122 87 -159 -3 -27 -4 -27 -70 -24 l-67 3 -5 -33 c-13 -88 -14
-109 -3 -138 18 -47 48 -40 112 27 l54 56 21 -24 c16 -18 20 -34 17 -69 -4
-53 -53 -169 -79 -189 -10 -7 -18 -19 -18 -26 0 -7 -9 -24 -21 -39 -15 -19
-30 -26 -56 -26 -44 0 -68 25 -88 95 -10 32 -32 70 -61 102 -25 29 -47 60 -49
70 -3 16 -15 50 -49 140 -7 18 -20 41 -29 51 -9 10 -17 27 -16 38 0 12 3 14 6
6 4 -10 9 -8 20 7 8 12 22 21 32 21 9 0 26 6 37 14 10 8 29 12 40 10 45 -11
31 16 -52 104 -47 50 -94 102 -106 117 -23 30 -63 48 -87 40 -21 -6 -40 -60
-36 -100 2 -16 4 -34 4 -38 1 -5 6 -5 13 -1 7 5 9 2 6 -7 -4 -10 7 -21 33 -33
50 -25 73 -51 74 -84 1 -29 -29 -58 -55 -54 -13 2 -16 -16 -18 -109 l-3 -112
42 -43 42 -43 -16 -57 c-9 -31 -26 -67 -37 -79 -11 -12 -20 -27 -20 -34 0 -6
-7 -26 -16 -43 -8 -16 -17 -42 -18 -57 -3 -22 -10 -28 -52 -37 -69 -16 -190
-1 -214 25 -3 3 -30 18 -62 33 -31 15 -65 39 -75 53 -10 15 -30 41 -45 59 -14
17 -39 58 -55 90 -47 99 -80 98 -102 -3 -20 -96 -14 -175 23 -285 19 -56 37
-123 40 -150 3 -27 15 -65 26 -83 11 -19 20 -41 20 -49 0 -20 54 -174 76 -216
24 -47 84 -210 84 -230 0 -10 9 -37 19 -60 22 -51 39 -117 56 -217 7 -40 17
-76 22 -80 15 -10 31 -62 43 -141 7 -41 17 -97 22 -125 6 -27 14 -77 18 -110
5 -33 14 -84 22 -114 11 -45 17 -55 36 -56 29 -2 46 -20 62 -65 24 -68 32
-116 40 -225 4 -60 15 -135 24 -165 9 -30 19 -104 22 -165 3 -60 9 -126 14
-145 5 -19 12 -48 15 -63 4 -21 10 -27 23 -23 22 7 31 -1 157 -144 55 -63 141
-157 190 -210 116 -123 289 -325 360 -420 66 -88 168 -292 184 -370 7 -30 18
-100 27 -155 8 -55 21 -136 28 -180 47 -268 60 -340 71 -390 3 -16 10 -52 16
-80 5 -27 14 -68 18 -90 5 -22 16 -80 24 -128 10 -57 26 -105 44 -136 15 -27
51 -87 78 -135 143 -249 168 -277 295 -330 25 -10 68 -28 95 -40 109 -48 124
-50 195 -26 86 29 100 37 100 60 0 26 -60 103 -150 191 -68 67 -81 85 -99 140
-11 35 -34 102 -51 149 -32 88 -55 160 -70 220 -5 19 -18 67 -30 105 -22 73
-27 91 -54 190 -9 33 -30 157 -45 275 -22 169 -26 232 -21 295 4 44 13 143 20
220 6 77 16 154 23 170 13 35 191 232 217 240 10 3 40 -6 68 -22 125 -71 201
-116 249 -151 29 -20 112 -77 184 -127 72 -49 154 -107 182 -127 29 -20 69
-46 89 -57 20 -12 40 -25 43 -31 3 -6 23 -19 43 -31 20 -11 55 -31 77 -44 22
-13 56 -33 76 -44 19 -11 41 -27 48 -35 8 -9 19 -16 26 -16 8 0 26 -11 42 -24
15 -13 42 -31 58 -40 17 -9 50 -30 75 -46 25 -16 55 -34 68 -40 12 -5 22 -18
22 -30 0 -39 27 -21 33 21 3 23 19 69 35 103 36 72 47 140 26 160 -20 21 -19
134 2 157 9 10 17 30 17 44 0 14 3 28 8 31 5 3 9 12 9 21 0 8 15 53 33 99 34
89 29 86 92 69 19 -6 20 -1 20 98 0 98 2 106 28 140 15 19 27 38 27 42 0 3 13
33 29 66 23 45 33 84 41 162 13 113 36 226 70 332 33 104 41 163 35 232 -5 42
-2 75 9 106 8 25 17 71 20 103 2 33 14 97 25 144 24 105 50 278 58 388 3 45 9
85 14 87 7 5 1 96 -6 104 -5 4 -55 -107 -55 -120 0 -5 -9 -28 -19 -52 -11 -23
-22 -53 -24 -67 -3 -14 -15 -59 -27 -100 -11 -41 -27 -109 -35 -150 -8 -41
-20 -99 -26 -127 -27 -135 -92 -178 -164 -110 -84 80 -122 296 -92 532 10 72
17 140 17 153 0 25 -56 81 -82 82 -9 0 -29 15 -43 34 -14 19 -36 37 -49 40
-13 3 -36 22 -50 41 -15 19 -45 44 -66 55 -22 11 -47 31 -56 45 -9 14 -24 25
-32 25 -9 0 -42 26 -73 58 -31 31 -65 64 -75 73 -11 8 -40 43 -66 77 -26 34
-65 73 -87 86 -22 14 -66 62 -101 110 -34 47 -64 86 -68 86 -4 0 -69 60 -145
134 -129 125 -140 139 -163 203 -14 37 -23 76 -20 86 10 38 -68 210 -114 252
-12 11 -47 62 -77 112 -29 51 -63 99 -75 107 -22 15 -47 55 -92 141 -23 46
-56 75 -111 98 -11 4 -36 19 -55 32 -19 13 -60 31 -90 40 -73 22 -121 43 -118
52 5 14 -95 110 -137 133 -22 12 -58 32 -80 43 -22 12 -42 25 -45 28 -3 4 -32
25 -64 48 -32 22 -80 60 -107 83 -26 24 -64 54 -84 68 -20 14 -49 35 -65 48
-15 12 -32 22 -38 22 -6 0 -21 9 -34 20 -12 11 -57 45 -98 75 -156 114 -202
151 -221 178 -11 15 -26 27 -33 27 -8 0 -19 7 -26 15 -7 8 -27 15 -46 15 -32
0 -33 -1 -39 -54z m-25 -1347 c21 -17 44 -44 50 -59 10 -25 8 -33 -27 -84 -21
-31 -51 -63 -67 -71 -26 -13 -31 -13 -57 6 -16 11 -29 26 -30 32 -2 49 -7 96
-13 118 -6 21 -1 31 29 57 45 40 66 40 115 1z m66 -340 c19 -21 18 -21 -10
-45 -38 -33 -109 -31 -114 3 -8 54 85 86 124 42z"/>
<path d="M17225 17539 c-4 -13 -18 -31 -30 -41 -25 -19 -40 -72 -50 -175 -7
-64 1 -143 14 -143 14 0 41 70 51 135 6 35 14 75 19 88 11 28 17 144 9 153 -4
3 -9 -5 -13 -17z"/>
<path d="M17400 16753 c-19 -32 -37 -60 -41 -63 -4 -3 -19 -52 -34 -110 -14
-58 -35 -131 -46 -162 -10 -32 -19 -64 -19 -73 0 -8 -4 -15 -8 -15 -8 0 -31
-74 -34 -107 -1 -7 -5 -13 -10 -13 -16 0 13 -41 35 -50 35 -13 64 28 72 103 5
39 16 75 31 97 13 19 24 45 24 57 0 12 4 32 9 45 5 13 14 43 21 68 7 25 16 54
20 65 32 85 44 163 30 180 -7 8 -9 19 -5 25 3 5 2 10 -2 10 -5 0 -24 -26 -43
-57z"/>
<path d="M26600 16261 c0 -6 5 -13 10 -16 6 -3 10 1 10 9 0 9 -4 16 -10 16 -5
0 -10 -4 -10 -9z"/>
<path d="M27127 16154 c-14 -15 8 -34 39 -34 27 0 34 4 34 20 0 16 -7 20 -33
20 -19 0 -36 -3 -40 -6z"/>
<path d="M27205 15790 c-8 -14 3 -30 21 -30 8 0 14 9 14 20 0 21 -24 28 -35
10z"/>
<path d="M12285 15638 c-22 -104 -7 -308 25 -328 7 -4 8 -18 4 -35 -5 -20 -4
-26 5 -21 7 5 11 0 11 -13 0 -12 5 -21 10 -21 6 0 10 -18 10 -40 0 -22 5 -40
10 -40 6 0 10 -9 10 -20 0 -11 5 -20 10 -20 6 0 10 -9 10 -20 0 -11 5 -20 10
-20 6 0 10 -7 10 -15 0 -19 40 -65 56 -65 7 0 15 -6 17 -12 4 -9 8 -10 14 -3
4 6 22 15 38 20 26 9 31 16 37 60 3 28 7 92 7 143 1 86 0 92 -19 92 -13 0 -20
7 -20 19 0 11 -4 23 -10 26 -5 3 -10 18 -10 32 0 15 -7 34 -15 43 -19 21 -31
80 -16 80 6 0 11 9 11 20 0 11 -4 20 -10 20 -5 0 -10 9 -10 20 0 11 -4 20 -10
20 -5 0 -9 3 -9 8 4 22 -3 32 -21 32 -11 0 -20 6 -20 14 0 18 -53 39 -79 31
-15 -5 -21 -2 -21 9 0 30 -28 16 -35 -16z"/>
<path d="M20840 14495 c0 -8 -4 -15 -10 -15 -5 0 -10 -6 -10 -14 0 -8 -16 -20
-35 -26 -19 -6 -35 -16 -35 -21 0 -11 -37 -49 -48 -49 -17 0 -52 -38 -52 -56
0 -16 -2 -17 -10 -4 -8 12 -10 11 -10 -7 0 -13 -4 -23 -10 -23 -5 0 -10 -9
-10 -20 0 -18 -7 -20 -81 -20 -72 0 -81 -2 -86 -20 -4 -15 -14 -20 -40 -20
-26 0 -36 -5 -40 -20 -5 -20 -43 -29 -43 -10 0 15 -19 12 -36 -5 -9 -8 -33
-15 -55 -15 -21 0 -39 -4 -39 -10 0 -5 -11 -10 -25 -10 -15 0 -31 -9 -41 -25
-10 -16 -26 -25 -43 -25 -35 0 -55 -14 -48 -33 7 -19 -11 -27 -46 -20 -16 3
-27 1 -27 -6 0 -6 -6 -11 -13 -11 -7 0 -19 -8 -26 -19 -11 -15 -24 -18 -66
-15 -31 1 -61 -3 -76 -11 -13 -8 -34 -19 -46 -24 -13 -6 -23 -16 -23 -22 0 -6
-9 -9 -20 -6 -10 3 -24 -1 -30 -8 -6 -7 -28 -15 -49 -19 -21 -3 -50 -15 -64
-26 -14 -11 -32 -20 -41 -20 -9 0 -16 -4 -16 -9 0 -5 -13 -14 -30 -20 -16 -5
-30 -15 -30 -20 0 -6 -6 -11 -14 -11 -8 0 -16 -7 -20 -15 -3 -9 -18 -15 -40
-15 -19 0 -41 -7 -50 -15 -8 -8 -23 -15 -34 -15 -11 0 -31 -9 -45 -20 -14 -11
-53 -27 -88 -36 -34 -9 -70 -20 -78 -24 -9 -5 -35 -13 -58 -19 -24 -7 -43 -16
-43 -21 0 -6 -6 -10 -13 -10 -8 0 -22 -9 -32 -20 -10 -11 -26 -20 -36 -20 -10
0 -24 -6 -32 -14 -26 -27 -82 -56 -106 -56 -26 0 -81 -30 -121 -65 -14 -12
-37 -25 -52 -29 -30 -7 -128 -102 -128 -125 0 -16 -22 -83 -30 -91 -12 -11
-30 -62 -30 -85 0 -13 -7 -30 -15 -38 -24 -25 -55 -180 -55 -277 0 -67 -12
-163 -24 -191 -5 -12 0 -19 21 -27 216 -80 447 -158 693 -233 186 -57 328
-104 540 -177 158 -55 347 -112 374 -112 9 0 22 15 31 38 17 42 42 61 95 73
31 7 38 5 62 -21 41 -46 80 -41 134 15 36 38 49 45 81 45 42 0 102 -26 142
-63 55 -50 75 -56 147 -51 67 6 72 4 175 -45 58 -27 111 -57 119 -65 7 -9 20
-16 29 -16 9 0 35 -13 58 -29 38 -26 51 -28 167 -35 69 -3 136 -10 148 -15 13
-5 35 -12 50 -15 15 -4 50 -26 78 -51 28 -25 55 -45 60 -45 5 0 39 -26 77 -58
37 -32 82 -67 99 -77 30 -17 34 -17 100 0 90 23 179 23 284 -2 110 -25 122
-32 206 -120 42 -44 78 -74 90 -73 10 0 71 3 134 6 109 5 117 5 150 -18 23
-15 47 -48 70 -92 38 -75 52 -86 78 -63 39 34 88 50 153 50 114 0 162 -42 183
-156 4 -21 14 -46 23 -56 13 -16 20 -17 47 -7 17 6 36 17 41 23 6 7 29 15 53
18 39 5 43 3 52 -21 17 -44 12 -99 -14 -136 l-23 -34 46 -22 c25 -11 116 -42
201 -67 247 -75 298 -91 417 -134 262 -94 704 -235 839 -266 10 -2 36 -9 56
-13 35 -9 37 -8 49 20 8 20 14 25 20 17 5 -9 10 -4 15 16 5 19 3 30 -5 33 -8
3 -9 8 -2 16 8 10 54 12 111 7 3 -1 11 -20 18 -42 11 -36 11 -44 -3 -59 -32
-35 -3 -85 60 -102 134 -36 182 -51 192 -60 9 -7 13 -7 13 0 0 5 9 8 20 5 11
-3 20 -9 20 -14 0 -5 9 -9 20 -9 19 0 20 7 20 140 0 87 4 140 10 140 6 0 10
14 10 30 0 17 5 30 10 30 6 0 10 9 10 20 0 15 -7 20 -26 20 -30 0 -54 21 -54
49 0 12 -8 21 -21 23 -12 2 -27 12 -33 23 -17 31 -100 105 -118 105 -4 0 -8 4
-8 10 0 9 -27 36 -75 78 -8 6 -21 12 -30 12 -8 0 -15 9 -15 20 0 23 -20 70
-31 70 -17 0 -18 35 -2 59 25 37 25 176 1 211 -10 13 -18 34 -18 46 0 12 -13
50 -28 84 -18 38 -28 76 -26 96 1 19 -2 34 -7 34 -6 0 -7 5 -4 10 3 6 2 10 -3
10 -5 0 -9 6 -10 13 -8 69 -25 143 -37 167 -8 16 -15 51 -15 78 0 49 -21 115
-39 126 -5 4 -12 20 -16 36 -4 17 -10 30 -15 30 -17 0 -40 32 -40 56 0 14 -7
27 -15 30 -8 4 -15 14 -15 23 0 9 -14 33 -31 54 -17 20 -27 42 -24 48 4 6 -2
19 -13 29 -20 19 -47 114 -36 131 3 5 1 9 -4 9 -5 0 -19 24 -31 53 -13 28 -27
60 -32 70 -6 10 -7 22 -4 26 2 5 -9 35 -27 67 -17 33 -34 73 -38 89 -3 17 -12
30 -20 30 -8 0 -21 12 -28 28 -7 15 -17 27 -23 27 -5 0 -9 7 -9 15 0 8 -5 15
-11 15 -5 0 -8 4 -5 9 3 5 -1 11 -9 15 -8 3 -15 14 -15 24 0 11 -6 25 -14 31
-8 7 -17 23 -20 36 -4 14 -11 25 -16 25 -6 0 -10 7 -10 15 0 8 -4 15 -8 15 -5
0 -14 16 -22 35 -16 41 -21 43 -82 37 -43 -4 -48 -7 -48 -28 0 -13 4 -24 9
-24 5 0 12 -35 16 -77 4 -43 13 -93 21 -112 8 -18 14 -44 14 -58 0 -30 25 -79
44 -86 8 -3 17 -25 21 -49 4 -24 14 -55 21 -70 8 -15 14 -36 14 -48 0 -11 6
-20 13 -20 18 0 45 -105 43 -170 -1 -50 -3 -55 -24 -58 -13 -2 -32 -12 -43
-23 -10 -10 -30 -21 -44 -25 -14 -3 -25 -10 -25 -14 0 -4 -12 -10 -27 -12 -16
-3 -32 -6 -38 -8 -42 -11 -65 1 -89 48 -13 26 -32 75 -41 107 -10 33 -22 66
-27 73 -6 6 -32 12 -58 12 -27 0 -56 3 -64 6 -23 9 -56 86 -56 131 0 33 -7 45
-47 84 -27 25 -67 58 -91 73 -24 15 -45 35 -48 44 -3 9 -13 31 -22 49 -12 24
-14 39 -6 60 10 30 -3 70 -31 93 -8 7 -15 16 -15 21 0 4 -11 20 -25 35 -14 15
-28 39 -31 53 -3 14 -9 34 -14 43 -6 9 -7 30 -4 45 7 41 -91 143 -177 185 -62
29 -68 30 -167 25 -93 -4 -107 -8 -130 -30 -17 -16 -45 -27 -75 -32 -51 -7
-112 -37 -120 -59 -3 -8 -31 -15 -73 -19 -37 -4 -74 -13 -83 -20 -21 -18 -105
-39 -126 -31 -9 4 -21 -1 -29 -11 -12 -17 -26 -17 -187 -10 -249 12 -342 11
-347 -3 -2 -7 -10 -12 -17 -12 -8 0 -17 -16 -21 -37 -10 -59 -57 -93 -97 -72
-12 7 -52 42 -89 80 -52 52 -68 75 -68 96 0 21 -14 43 -55 83 -34 33 -55 63
-55 76 0 33 -10 54 -26 54 -23 0 -127 60 -161 93 -42 39 -43 71 -3 92 16 8 34
15 40 15 19 0 70 57 70 79 0 43 -52 131 -94 160 -113 77 -195 98 -269 68 -18
-8 -57 -17 -87 -21 -30 -4 -57 -11 -60 -16 -12 -19 -100 -16 -100 4 0 15 -21
26 -48 26 -22 0 -67 -57 -67 -84 0 -12 -8 -22 -20 -25 -10 -2 -37 -21 -59 -43
-23 -23 -56 -47 -75 -55 -18 -8 -44 -27 -57 -42 -14 -17 -38 -31 -60 -36 -20
-3 -44 -10 -53 -15 -19 -10 -129 -33 -135 -28 -2 2 -13 -5 -24 -15 -21 -20
-112 -51 -112 -39 0 4 -5 -1 -11 -10 -5 -10 -19 -18 -29 -18 -11 0 -20 -5 -20
-10 0 -6 -25 15 -55 46 -30 32 -55 61 -55 65 0 4 -7 15 -16 24 -14 14 -33 70
-34 101 0 17 58 74 75 74 8 0 15 9 15 20 0 11 4 20 9 20 5 0 13 9 16 20 4 11
17 32 31 45 13 13 24 34 24 45 0 31 24 50 61 50 18 0 60 6 93 12 52 11 68 20
108 60 26 27 52 48 58 48 17 0 40 26 40 44 0 13 12 16 56 16 57 0 84 -14 84
-44 0 -10 9 -16 21 -16 11 0 27 -7 35 -15 8 -8 21 -12 28 -9 8 3 28 -2 45 -10
17 -9 32 -15 33 -14 2 1 16 -7 31 -17 37 -24 44 -14 52 75 4 36 10 79 15 95
14 51 22 195 10 195 -5 0 -10 9 -10 20 0 11 -4 20 -10 20 -5 0 -10 7 -10 15 0
8 -9 15 -20 15 -11 0 -20 -7 -20 -15z m1952 -1420 c3 -14 3 -36 1 -49 -4 -20
-11 -23 -48 -23 -40 0 -44 2 -49 30 -7 36 0 46 37 49 15 1 27 6 27 10 0 20 28
5 32 -17z m-1374 -986 c34 -16 72 -29 85 -29 25 0 131 -53 162 -80 11 -10 46
-30 77 -45 67 -31 81 -46 76 -77 -3 -21 -8 -23 -68 -23 -60 0 -69 3 -114 38
-27 21 -55 36 -62 33 -8 -3 -14 -2 -14 3 0 9 -89 41 -114 41 -14 0 -74 30
-101 50 -5 4 -32 13 -58 20 -33 9 -51 20 -57 34 -4 12 -4 23 1 24 5 2 9 12 9
22 0 10 6 20 13 23 27 9 106 -7 165 -34z m684 -258 c36 19 143 2 204 -31 29
-17 65 -30 79 -30 15 0 63 -16 106 -35 44 -19 89 -35 99 -35 11 0 20 -4 20
-10 0 -5 -4 -10 -10 -10 -5 0 -9 -10 -7 -22 2 -22 -2 -23 -81 -26 -78 -3 -86
-1 -161 36 -43 22 -100 43 -126 46 -77 12 -155 68 -154 111 0 11 3 14 6 8 3
-10 10 -10 25 -2z"/>
<path d="M28855 14242 c-28 -38 -53 -96 -60 -140 -4 -20 -13 -55 -20 -77 -12
-37 -22 -72 -47 -170 -17 -64 -28 -91 -54 -126 -13 -18 -24 -43 -24 -56 0 -13
-13 -37 -30 -55 -16 -17 -30 -34 -30 -39 0 -4 -29 -39 -65 -78 -36 -39 -65
-80 -65 -91 0 -11 -4 -20 -9 -20 -18 0 -60 -67 -54 -88 4 -19 15 -11 86 61
103 106 173 190 183 219 4 13 17 36 30 51 13 15 28 47 34 70 27 110 65 226 87
267 40 71 89 301 65 300 -4 0 -16 -13 -27 -28z"/>
<path d="M11455 13308 c-152 -103 -348 -242 -422 -301 -62 -48 -63 -50 -63
-97 0 -72 6 -80 55 -80 25 0 48 -6 54 -14 20 -24 19 -175 -1 -215 -10 -19 -18
-38 -18 -43 0 -6 -9 -17 -20 -26 -11 -10 -21 -28 -24 -42 -13 -75 -53 -119
-118 -127 -54 -7 -68 -18 -68 -54 0 -40 -18 -73 -48 -91 -34 -19 -134 -75
-185 -102 -50 -26 -127 -109 -127 -136 0 -11 -13 -39 -30 -62 -35 -49 -37 -58
-9 -58 13 0 18 -4 13 -12 -6 -10 -4 -10 7 0 7 6 29 12 49 12 20 0 40 3 44 7 3
4 14 8 24 9 9 2 18 7 20 13 2 5 10 7 18 4 8 -3 14 0 14 6 0 6 9 11 19 11 11 0
22 4 26 10 3 5 12 7 20 3 8 -3 15 0 15 6 0 6 15 11 34 11 41 0 66 8 66 22 0 5
7 17 16 25 13 13 17 14 24 3 6 -10 14 -7 34 13 14 14 26 33 26 42 0 8 9 15 20
15 11 0 20 5 20 10 0 6 14 10 30 10 25 0 30 4 30 25 0 35 20 74 42 80 10 4 18
13 18 21 0 8 4 13 9 9 5 -3 16 2 24 10 9 8 23 15 31 15 9 0 16 5 16 10 0 6 7
10 15 10 17 0 55 34 73 65 6 11 12 14 12 8 0 -9 17 -13 50 -13 l50 0 0 80 c0
73 -2 80 -20 80 -11 0 -20 7 -20 14 0 24 48 69 65 62 9 -3 15 0 15 9 0 8 5 15
10 15 6 0 10 5 10 11 0 6 20 31 45 56 40 39 45 50 45 89 0 24 4 44 9 44 5 0
14 15 20 33 13 40 32 213 25 232 -3 7 0 16 5 20 6 3 8 11 5 17 -11 18 -6 209
6 223 6 8 10 28 8 46 l-3 32 -110 -75z"/>
<path d="M28330 13138 c-12 -40 -28 -90 -36 -111 -16 -42 -19 -97 -5 -97 13 0
60 151 75 243 11 63 -10 41 -34 -35z"/>
<path d="M17923 12627 c-17 -22 -163 -99 -213 -113 -35 -9 -110 -54 -110 -65
0 -18 51 -58 66 -52 8 3 14 0 14 -6 0 -5 34 -26 75 -46 86 -42 88 -41 170 34
71 66 205 204 205 212 0 8 -153 59 -175 59 -7 0 -22 -10 -32 -23z"/>
<path d="M28088 12463 c-23 -27 -35 -53 -43 -98 -6 -38 -24 -68 -74 -124 -12
-14 -24 -36 -28 -50 -3 -14 -23 -62 -44 -107 -22 -44 -39 -90 -39 -102 0 -12
-4 -22 -10 -22 -5 0 -10 -8 -10 -19 0 -10 -7 -24 -15 -31 -24 -20 -57 -95 -53
-121 2 -20 9 -14 39 41 20 36 39 77 43 93 3 15 19 39 35 53 16 14 37 46 46 72
10 26 28 59 41 74 12 15 30 51 39 80 10 29 24 60 31 69 16 18 69 123 78 155 7
22 -1 54 -14 54 -4 0 -14 -8 -22 -17z"/>
<path d="M11218 12241 c-11 -10 -18 -33 -18 -54 0 -34 -2 -37 -30 -37 -16 0
-30 4 -30 10 0 5 -7 7 -15 4 -11 -5 -15 -21 -15 -59 0 -33 -5 -55 -12 -58 -8
-3 -8 -6 -2 -6 12 -1 -100 -121 -113 -121 -4 0 -14 -9 -21 -20 -7 -11 -18 -20
-26 -20 -7 0 -23 -9 -36 -20 -13 -11 -29 -20 -36 -20 -7 0 -18 -8 -23 -19 -6
-10 -23 -24 -39 -30 -16 -7 -35 -24 -41 -37 -6 -14 -15 -23 -19 -20 -12 7 -92
-15 -92 -26 0 -13 -22 -32 -40 -36 -15 -3 -23 -15 -20 -28 1 -4 -11 -13 -27
-19 -18 -8 -38 -32 -58 -69 -32 -63 -56 -80 -128 -91 -26 -4 -50 -11 -52 -16
-3 -4 -12 -6 -19 -3 -8 3 -20 -3 -27 -14 -8 -10 -24 -22 -37 -26 -12 -4 -26
-16 -32 -26 -14 -26 -99 -80 -126 -80 -16 0 -29 -10 -38 -29 -9 -16 -22 -31
-31 -34 -9 -4 -15 -19 -15 -38 0 -51 -115 -152 -199 -174 -52 -13 -111 -44
-111 -57 0 -4 -9 -8 -19 -8 -11 0 -23 -4 -26 -10 -3 -5 -18 -10 -32 -10 -25 0
-84 -30 -111 -57 -8 -8 -28 -21 -45 -29 -18 -9 -39 -25 -47 -36 -11 -13 -35
-22 -74 -27 -32 -4 -62 -14 -66 -21 -13 -22 -109 -29 -150 -12 -36 15 -80 58
-80 80 0 28 55 102 76 102 12 0 44 37 44 50 0 3 -16 7 -36 8 -20 2 -50 13 -68
26 -17 13 -64 40 -105 61 -70 35 -74 35 -92 19 -10 -9 -19 -28 -19 -42 0 -14
-9 -44 -21 -67 -19 -37 -25 -42 -58 -43 -21 -1 -56 8 -84 22 -34 18 -58 23
-85 20 -68 -9 -82 -14 -82 -29 0 -15 -4 -15 -100 0 -45 7 -121 30 -151 45 -22
11 -55 -7 -194 -107 -66 -47 -149 -106 -185 -131 -135 -95 -240 -184 -240
-203 0 -16 -3 -18 -19 -10 -14 8 -23 5 -40 -13 l-22 -23 32 -7 c51 -10 87 -7
103 9 13 13 15 13 21 -5 3 -11 15 -20 26 -20 10 0 19 -4 19 -10 0 -5 9 -10 20
-10 16 0 20 7 20 30 0 27 3 30 30 30 23 0 31 -5 36 -24 4 -16 11 -23 20 -19 8
3 14 0 14 -6 0 -6 11 -16 24 -21 13 -5 27 -18 31 -29 3 -12 15 -21 25 -21 29
0 50 -11 50 -26 0 -8 9 -14 20 -14 11 0 20 -7 20 -15 0 -18 43 -65 60 -65 5 0
10 -4 10 -10 0 -5 12 -10 26 -10 17 0 28 -6 31 -20 3 -11 14 -20 24 -20 12 0
19 7 19 20 0 12 7 20 16 20 9 0 18 -9 21 -20 3 -11 14 -20 24 -20 11 0 19 -4
19 -10 0 -5 9 -10 21 -10 15 0 19 -5 14 -19 -5 -15 1 -19 37 -25 81 -13 108
-14 108 -5 0 5 14 9 30 9 17 0 30 -4 30 -9 0 -5 9 -11 19 -14 11 -2 21 -15 23
-28 2 -18 10 -25 33 -27 17 -2 34 -8 40 -13 5 -5 17 -9 27 -9 13 0 20 -10 25
-30 3 -16 12 -30 19 -30 8 0 14 -4 14 -10 0 -6 60 -10 160 -10 l160 0 0 40 c0
22 -4 40 -10 40 -16 0 -12 50 5 66 8 9 15 23 15 33 0 26 56 41 158 41 73 0 92
3 92 14 0 21 21 25 138 28 56 1 102 5 102 8 0 3 21 7 47 8 30 1 50 7 56 17 4
8 19 15 32 15 13 0 30 7 39 15 8 8 26 15 40 15 14 0 26 5 26 10 0 6 13 10 28
10 16 0 34 8 42 20 8 11 22 20 32 20 10 0 18 5 18 10 0 6 9 10 20 10 11 0 20
5 20 10 0 6 12 10 26 10 15 0 35 10 47 23 13 15 21 18 24 10 6 -18 16 -16 43
7 13 11 31 20 42 20 11 0 18 7 18 20 0 13 7 20 19 20 11 0 22 6 25 13 5 10 7
10 12 0 9 -20 24 -15 24 7 0 11 7 20 15 20 20 0 65 45 65 65 0 8 9 15 20 15
13 0 20 7 20 20 0 13 7 20 18 20 10 0 24 9 32 20 8 12 26 20 42 20 26 0 28 3
28 40 0 32 4 40 18 40 10 0 24 9 32 20 8 11 21 20 29 20 8 0 31 18 53 41 21
22 43 37 48 34 6 -3 10 1 10 9 0 9 8 16 19 16 11 0 23 12 31 30 7 17 19 30 26
30 8 0 14 8 14 18 0 10 9 24 20 32 11 8 20 20 20 28 0 7 11 25 25 40 14 15 32
34 40 43 8 9 15 21 15 27 0 7 6 12 13 12 17 0 73 59 81 87 4 12 19 34 35 50
15 15 34 44 41 63 8 19 24 48 37 63 13 16 23 34 23 40 0 27 36 96 52 101 17 4
24 40 20 96 0 9 12 24 29 35 58 39 105 183 79 246 -9 21 -10 33 -3 37 6 4 14
24 18 45 6 30 4 37 -9 37 -12 0 -16 10 -16 39 0 22 5 41 12 43 17 6 -14 38
-36 38 -9 0 -16 5 -16 10 0 16 -23 11 -42 -9z"/>
<path d="M27762 12222 c-16 -53 -16 -139 1 -145 17 -6 63 19 71 38 3 9 6 37 6
61 0 39 -3 46 -27 57 -16 6 -31 15 -34 20 -3 4 -11 -10 -17 -31z"/>
<path d="M11080 12155 c0 -19 5 -35 10 -35 6 0 10 16 10 35 0 19 -4 35 -10 35
-5 0 -10 -16 -10 -35z"/>
<path d="M17991 12148 c-30 -28 -32 -33 -29 -91 4 -73 17 -81 83 -48 57 29 75
20 75 -35 0 -31 -6 -49 -19 -60 -10 -9 -33 -29 -50 -44 -17 -16 -31 -25 -31
-22 0 4 -9 -6 -20 -23 -26 -38 -24 -134 3 -183 19 -32 19 -53 1 -127 -10 -40
-44 -85 -65 -85 -9 0 -28 -9 -41 -20 -19 -15 -24 -26 -20 -46 2 -14 0 -29 -6
-33 -5 -3 -13 -24 -16 -45 -4 -22 -14 -45 -24 -53 -33 -26 -74 -44 -87 -39
-21 8 -64 -36 -71 -74 -10 -53 -66 -116 -109 -124 -47 -9 -65 6 -65 54 0 30 7
45 37 74 21 20 45 36 55 36 9 0 20 5 23 10 3 6 15 10 26 10 17 0 18 3 7 22
-14 23 -29 43 -65 86 -13 15 -23 32 -23 39 0 6 -9 18 -20 26 -44 30 -44 64 -5
232 32 139 38 155 51 155 8 0 14 9 14 20 0 12 6 33 14 48 14 28 20 66 18 114
-4 60 -99 104 -162 76 -16 -7 -30 -16 -30 -20 0 -4 -12 -14 -27 -22 -16 -9
-65 -50 -110 -93 l-81 -78 -4 -111 c-5 -116 0 -132 38 -126 34 5 54 -24 54
-78 l0 -48 -50 -12 c-59 -14 -100 -7 -101 18 0 13 -2 14 -6 2 -4 -8 -12 -21
-20 -28 -7 -7 -13 -19 -13 -26 0 -8 -18 -26 -41 -40 -38 -25 -45 -27 -107 -20
-37 4 -93 8 -125 8 -32 1 -61 6 -65 12 -4 6 -14 13 -23 16 -21 8 -30 61 -20
113 4 22 3 56 -2 75 -5 19 -12 65 -14 102 -4 62 -8 70 -44 108 -22 22 -52 43
-67 46 -16 4 -40 23 -60 49 -29 37 -34 56 -43 132 -6 48 -10 103 -9 121 0 17
-4 32 -10 32 -11 0 -11 -2 -16 -65 -8 -115 -13 -157 -22 -187 -5 -18 -10 -42
-10 -53 0 -11 -6 -60 -12 -110 -7 -49 -14 -103 -16 -120 -54 -543 -53 -534
-39 -644 8 -58 18 -149 24 -201 11 -106 71 -545 97 -715 9 -60 28 -154 41
-210 14 -55 33 -138 44 -185 10 -47 26 -114 34 -150 9 -36 23 -99 31 -140 8
-41 24 -100 34 -130 10 -30 28 -89 40 -130 11 -41 36 -122 55 -180 20 -58 48
-152 64 -210 31 -111 140 -437 222 -658 54 -148 72 -182 158 -297 33 -44 70
-95 83 -113 13 -18 43 -59 68 -90 25 -31 52 -67 60 -79 51 -74 109 -155 144
-200 63 -80 157 -207 206 -278 14 -20 41 -53 60 -74 19 -20 98 -103 175 -185
255 -271 270 -284 455 -396 47 -29 108 -69 135 -89 83 -62 204 -131 284 -163
42 -16 139 -57 216 -90 253 -109 475 -189 550 -198 38 -5 104 -14 145 -20 170
-25 208 -29 280 -30 42 0 111 4 155 9 44 6 114 12 155 15 143 11 328 36 372
50 23 8 97 29 163 46 66 18 143 38 170 46 28 8 102 27 165 44 186 49 311 89
530 170 81 30 141 52 545 199 177 65 278 103 505 191 138 54 308 113 505 176
258 82 475 159 545 194 41 20 91 42 110 50 72 27 339 160 366 183 16 13 36 27
44 30 8 4 33 21 55 37 22 17 65 47 95 67 30 20 91 67 135 104 44 36 105 81
135 98 30 18 64 37 75 44 31 19 143 115 214 184 36 35 69 63 73 63 11 0 132
103 200 170 76 74 73 80 -72 162 -183 103 -234 128 -242 114 -15 -24 -44 -60
-79 -96 -27 -29 -42 -37 -58 -33 -12 3 -21 9 -21 14 0 5 -9 9 -20 9 -25 0 -25
8 -2 29 25 21 38 48 46 93 4 21 10 37 14 37 30 -5 35 3 13 22 -22 18 -252 149
-339 193 -20 10 -40 23 -44 30 -6 8 -8 8 -8 -1 0 -7 -11 -1 -25 12 -13 14 -30
26 -37 26 -33 3 -38 4 -35 12 2 8 -54 40 -60 33 -2 -2 5 -19 16 -37 l20 -34
-29 -34 c-24 -27 -30 -43 -30 -82 0 -42 -3 -49 -20 -49 -16 0 -20 7 -20 35 0
28 -4 35 -20 35 -11 0 -20 -4 -20 -10 0 -5 -4 -10 -10 -10 -5 0 -10 11 -10 25
0 14 5 25 10 25 6 0 10 6 10 14 0 7 7 19 16 26 8 7 14 23 13 34 -3 44 0 50 16
36 18 -15 29 -7 39 26 5 15 1 23 -11 28 -10 3 -36 17 -58 31 -72 46 -118 64
-136 54 -10 -5 -36 -9 -58 -9 -36 0 -40 3 -46 30 -4 16 -4 34 -1 39 6 9 -63
61 -82 61 -7 0 -12 5 -12 10 0 6 -12 16 -27 22 -16 7 -35 17 -43 24 -32 25
-537 311 -710 402 -47 24 -95 51 -107 58 -22 14 -24 12 -39 -24 -8 -22 -26
-45 -40 -52 -20 -11 -24 -21 -25 -62 -1 -26 -2 -51 -3 -55 -8 -34 -20 -53 -32
-53 -8 0 -17 -6 -20 -14 -6 -16 -66 -19 -104 -5 -26 10 -47 3 -130 -41 -19
-11 -46 -19 -58 -20 -15 0 -26 -7 -29 -20 -5 -19 -12 -20 -125 -17 -118 3
-120 3 -151 -24 -26 -23 -31 -35 -32 -72 0 -25 -3 -49 -7 -53 -5 -4 -8 -16 -8
-26 0 -18 -5 -20 -35 -20 -43 0 -58 5 -117 45 -131 87 -139 90 -203 86 -179
-10 -383 9 -441 42 -19 10 -45 19 -57 19 -27 0 -139 53 -157 75 -7 9 -37 28
-67 42 -29 14 -53 30 -53 35 0 4 -7 8 -15 8 -8 0 -23 4 -33 9 -9 5 -37 14 -61
21 -24 6 -57 21 -72 32 -20 15 -36 19 -59 15 -25 -6 -32 -3 -38 14 -8 21 -14
25 -103 73 -29 15 -69 39 -89 51 -19 12 -56 29 -82 36 -27 7 -48 17 -48 21 0
4 -9 8 -20 8 -11 0 -20 3 -20 8 0 4 -20 16 -45 27 -25 11 -45 22 -45 26 0 3
-12 12 -27 19 -16 8 -38 23 -50 34 -13 11 -23 16 -23 12 0 -3 -12 0 -27 8 -16
7 -44 17 -63 21 -19 4 -38 12 -41 16 -3 5 -14 11 -25 13 -10 2 -39 12 -64 21
-25 9 -54 19 -65 21 -35 10 -70 28 -83 46 -6 9 -27 20 -45 23 -60 14 -104 36
-115 60 -6 14 -23 26 -41 30 -17 3 -33 14 -35 23 -3 10 -14 22 -24 27 -216
114 -246 127 -301 126 -88 -2 -161 9 -161 24 0 13 -112 75 -134 75 -7 0 -38
27 -71 60 -33 33 -66 60 -75 60 -8 0 -30 9 -47 20 -51 31 -45 98 12 128 17 10
14 11 -20 12 -23 0 -50 -7 -60 -15 -57 -44 -98 -63 -142 -70 -71 -9 -79 -16
-63 -54 12 -30 15 -31 73 -31 61 0 137 -25 137 -44 0 -32 -23 -85 -45 -106
-14 -13 -25 -30 -25 -37 0 -7 -5 -22 -12 -33 -10 -15 -9 -22 5 -38 9 -10 17
-22 17 -26 0 -23 72 -79 146 -112 83 -39 84 -39 84 -76 0 -46 8 -68 26 -68 8
0 14 -9 14 -19 0 -11 4 -22 9 -25 5 -4 4 -26 -3 -53 -11 -43 -15 -48 -42 -48
-58 -1 -97 -28 -109 -78 -4 -16 -18 -33 -31 -39 -13 -6 -24 -17 -24 -23 0 -7
-9 -15 -19 -18 -11 -2 -21 -15 -23 -28 -2 -19 -10 -25 -36 -27 -25 -3 -41 4
-74 33 -23 19 -48 33 -55 31 -7 -3 -13 1 -13 9 0 7 -9 17 -20 20 -11 3 -20 10
-20 14 0 4 -9 16 -19 28 -11 11 -21 38 -22 59 -3 40 5 55 59 110 12 13 22 30
22 39 0 8 5 15 10 15 14 0 12 49 -3 64 -7 7 -23 16 -37 19 -28 7 -97 59 -172
130 -28 26 -57 47 -65 47 -7 0 -13 6 -13 14 0 8 -6 21 -13 28 -29 29 -28 50 3
79 16 16 38 29 49 29 12 0 21 9 25 25 4 14 10 25 15 25 5 0 12 23 16 50 4 28
11 50 16 50 5 0 9 9 9 20 0 11 5 20 11 20 6 0 3 7 -5 16 -9 8 -16 19 -16 24 0
5 -11 21 -25 35 -14 14 -23 25 -20 25 3 0 -1 10 -10 23 -11 18 -12 31 -4 60 5
20 14 39 19 42 6 4 10 20 10 36 0 33 -32 68 -63 69 -10 0 -22 11 -27 24 -5 13
-13 27 -18 30 -6 3 -22 27 -37 52 -26 45 -27 49 -16 100 8 32 20 59 32 68 11
7 19 17 17 22 -1 5 3 18 9 29 6 11 13 38 15 60 7 59 24 81 65 82 20 1 48 11
64 22 15 12 30 21 33 21 5 0 61 57 101 103 18 21 19 62 1 147 -16 76 -16 100
-3 100 5 0 24 13 42 29 24 20 44 29 71 29 22 1 59 8 83 16 24 9 52 16 62 16
11 0 27 8 37 18 10 10 37 23 60 29 39 10 42 9 42 -10 0 -19 51 -164 70 -197 5
-8 29 -58 55 -110 51 -104 70 -131 89 -124 16 6 66 -44 66 -67 0 -13 15 -22
54 -33 30 -9 57 -20 60 -25 3 -4 29 -6 57 -3 57 5 69 -3 69 -50 0 -19 5 -28
16 -28 14 0 14 3 4 15 -9 10 -11 32 -7 66 8 65 -1 107 -23 114 -10 3 -28 22
-40 43 -28 46 -24 124 8 169 l21 30 -47 30 c-126 79 -235 141 -432 246 -47 24
-112 60 -145 80 -243 141 -462 265 -585 332 -80 43 -172 94 -205 113 -78 45
-86 45 -124 10z m5054 -3208 c27 0 35 -5 45 -30 7 -16 10 -39 7 -50 -3 -11 -1
-20 4 -20 14 0 10 -130 -5 -175 -10 -30 -20 -41 -38 -43 -50 -6 -68 -13 -68
-27 0 -10 -10 -15 -28 -15 -22 0 -31 -7 -43 -32 -11 -27 -20 -33 -47 -34 -18
-1 -39 5 -47 12 -7 8 -21 14 -29 14 -9 0 -16 8 -16 20 0 11 -7 20 -15 20 -20
0 -85 -32 -85 -42 0 -4 -20 -8 -44 -8 -24 0 -71 -9 -105 -20 -75 -24 -107 -15
-114 34 -2 17 -1 33 3 36 5 3 11 31 15 63 4 31 11 60 16 63 5 3 9 15 9 26 0
23 33 56 64 64 12 2 44 9 71 13 52 9 116 31 125 43 3 3 25 9 50 13 24 4 57 13
72 21 15 8 30 14 33 14 3 0 29 11 57 24 29 14 59 22 66 20 8 -2 28 -4 47 -4z
m-4137 -52 c11 -38 -2 -61 -29 -53 -14 5 -19 -2 -24 -37 -4 -24 -5 -57 -3 -73
3 -26 0 -30 -24 -33 -26 -3 -28 -1 -28 32 0 29 4 36 20 36 17 0 20 7 20 40 0
22 -4 40 -10 40 -5 0 -10 13 -10 28 0 20 7 32 23 40 40 19 56 14 65 -20z
m4958 -251 c4 -12 7 -32 5 -45 -3 -25 -34 -62 -51 -62 -5 0 -10 -9 -10 -19 0
-11 -9 -23 -20 -26 -11 -3 -27 -13 -35 -21 -8 -9 -21 -14 -29 -12 -11 2 -9 13
9 48 13 25 35 70 50 100 21 42 34 56 51 58 16 1 25 -5 30 -21z m-1676 -112
c11 -14 10 -50 -4 -115 -3 -14 -8 -41 -11 -61 -5 -33 -11 -39 -55 -58 -55 -24
-100 -27 -100 -8 0 6 13 31 29 55 27 39 51 116 51 161 0 33 68 53 90 26z
m-2908 -59 c8 -18 8 -37 0 -68 -11 -46 -2 -135 15 -147 42 -27 42 -133 0 -199
-10 -15 57 -87 72 -78 19 12 141 -57 141 -81 0 -13 52 -33 86 -33 17 0 24 6
24 19 0 12 9 21 24 25 32 8 54 -1 61 -25 4 -10 15 -19 26 -19 10 0 19 -4 19
-9 0 -5 -9 -7 -19 -4 -13 3 -21 -2 -26 -16 -3 -11 -14 -22 -24 -26 -9 -3 -36
-23 -59 -45 -53 -52 -77 -60 -190 -70 -78 -7 -96 -12 -108 -29 -22 -31 -84
-47 -120 -30 -28 14 -29 17 -32 94 -4 131 1 125 -97 125 -84 0 -135 13 -135
34 0 7 -9 18 -20 26 -11 8 -20 22 -20 32 0 10 -4 18 -10 18 -5 0 -10 9 -10 20
0 13 -7 20 -20 20 -13 0 -20 -7 -20 -20 0 -14 -9 -21 -33 -25 -25 -5 -36 -14
-44 -35 -7 -20 -20 -31 -39 -35 -16 -4 -43 -13 -61 -21 -43 -19 -55 -17 -78
13 -31 43 -32 126 -2 193 30 67 45 81 100 91 23 4 58 10 78 14 32 6 38 4 44
-14 3 -11 13 -21 21 -21 8 0 14 -4 14 -10 0 -5 9 -10 20 -10 13 0 20 7 20 20
0 11 5 20 10 20 16 0 12 28 -6 38 -15 8 -15 12 0 40 9 17 16 38 16 47 0 8 7
15 15 15 9 0 25 9 37 20 12 11 31 20 42 21 70 4 91 9 101 23 7 9 20 16 28 16
10 0 16 7 15 18 -4 48 2 62 27 62 14 0 25 4 25 10 0 5 7 7 15 4 8 -4 15 -1 15
5 0 6 11 11 25 11 17 0 29 -8 37 -24z m2548 -163 c3 1 6 -16 8 -38 2 -35 -1
-42 -24 -52 -31 -14 -69 0 -60 23 3 8 1 14 -4 14 -11 0 -13 30 -4 53 4 11 13
13 42 6 20 -4 39 -7 42 -6z m-297 -3 c17 0 27 -5 27 -14 0 -8 9 -17 20 -21 18
-6 19 -18 22 -173 2 -92 2 -172 0 -179 -7 -24 -62 -25 -62 -1 0 13 -39 48 -53
48 -6 0 -8 3 -4 6 3 3 -4 15 -15 26 -14 14 -18 26 -12 41 4 12 7 49 7 83 -1
54 -5 65 -32 92 -34 33 -37 48 -18 73 15 19 44 29 72 23 11 -2 32 -4 48 -4z
m-1557 -35 c19 -19 10 -51 -16 -58 -12 -3 -34 -34 -56 -80 -27 -54 -44 -77
-61 -82 -13 -3 -23 -12 -23 -20 0 -8 -4 -15 -9 -15 -4 0 -3 16 3 35 7 24 17
35 30 35 15 0 17 5 13 28 -4 20 2 39 21 69 15 22 35 55 44 72 19 34 32 38 54
16z m4504 -55 c0 -5 -4 -10 -10 -10 -5 0 -10 5 -10 10 0 6 5 10 10 10 6 0 10
-4 10 -10z m-39 -59 c6 10 9 4 9 -18 0 -18 -4 -33 -10 -33 -5 0 -10 -11 -10
-25 0 -16 -6 -25 -15 -25 -8 0 -15 7 -15 15 0 8 -4 15 -10 15 -5 0 -10 14 -10
30 0 23 4 30 20 30 11 0 20 6 21 13 0 8 2 8 6 -2 5 -11 7 -11 14 0z m-3176
-71 c17 0 55 -39 55 -56 0 -6 -12 -14 -27 -17 -21 -4 -33 1 -50 19 -27 29 -32
69 -7 60 9 -3 22 -6 29 -6z m3435 -98 c14 -5 13 -39 -2 -45 -10 -4 -10 -8 1
-15 12 -9 12 -13 -2 -26 -9 -9 -19 -33 -23 -54 -7 -40 -29 -72 -50 -72 -7 0
-16 -9 -19 -20 -3 -11 -12 -20 -19 -20 -8 0 -19 -6 -25 -14 -21 -25 -141 -42
-141 -21 0 8 -9 17 -20 20 -16 5 -20 15 -20 56 0 46 2 49 25 49 37 0 95 36 95
59 0 6 4 11 10 11 15 0 70 58 70 75 0 8 9 15 20 15 13 0 20 7 20 20 0 13 7 20
20 20 14 0 20 7 20 23 1 15 5 10 15 -18 8 -22 19 -41 25 -43z m-696 42 c14 -5
14 -8 1 -21 -8 -8 -15 -25 -15 -38 0 -13 -5 -27 -11 -30 -5 -4 -15 -18 -20
-32 -8 -21 -12 -23 -24 -13 -10 9 -15 9 -15 1 0 -6 5 -11 10 -11 16 0 12 -67
-5 -74 -10 -3 -15 -19 -15 -46 0 -40 0 -40 -39 -40 -22 0 -46 3 -55 6 -13 5
-13 8 -1 20 7 8 21 14 30 14 11 0 15 5 11 16 -3 8 1 28 9 43 8 16 15 59 16 96
2 64 3 68 30 77 16 5 29 14 29 18 0 5 10 11 23 13 12 2 23 5 24 6 1 0 8 -2 17
-5z m-3584 -54 c0 -15 -13 -18 -35 -8 -20 9 -22 14 -13 34 l11 24 19 -22 c10
-11 18 -24 18 -28z m-605 -157 c-11 -3 -23 -10 -27 -17 -5 -7 -8 -5 -8 7 0 12
7 17 28 16 21 -1 22 -2 7 -6z m-1255 -43 c0 -5 -4 -10 -10 -10 -5 0 -10 5 -10
10 0 6 5 10 10 10 6 0 10 -4 10 -10z m989 -158 c14 -34 5 -82 -15 -82 -8 0
-14 10 -14 25 0 14 -4 25 -10 25 -5 0 -10 14 -10 30 0 40 33 41 49 2z m741
-140 c6 -76 -1 -98 -43 -134 -42 -36 -95 -38 -126 -4 -13 14 -40 28 -62 31
-34 6 -38 9 -29 25 6 10 10 30 10 44 0 14 4 26 9 26 5 0 11 9 14 19 5 21 60
41 114 41 17 0 35 5 38 11 4 5 21 9 38 7 32 -3 32 -4 37 -66z m-320 -82 c0 -5
8 -11 18 -11 14 -1 15 -2 1 -6 -9 -2 -21 -15 -27 -28 -8 -17 -16 -22 -31 -18
-24 6 -25 13 -9 48 11 24 48 36 48 15z"/>
<path d="M18840 8060 c0 -13 7 -20 20 -20 13 0 20 7 20 20 0 13 -7 20 -20 20
-13 0 -20 -7 -20 -20z"/>
<path d="M19010 8050 c0 -20 5 -30 15 -30 10 0 15 10 15 30 0 20 -5 30 -15 30
-10 0 -15 -10 -15 -30z"/>
<path d="M10360 11796 c-5 -5 -10 -15 -10 -21 0 -21 -31 -75 -43 -76 -35 -2
-61 -12 -98 -36 -71 -48 -113 -71 -130 -72 -20 -1 -89 -66 -111 -106 -29 -50
-42 -68 -69 -94 -44 -43 -54 -69 -33 -92 9 -10 27 -19 39 -19 25 0 49 23 37
34 -4 4 -2 6 3 4 6 -1 11 1 12 5 3 12 25 30 58 48 17 9 37 30 46 47 19 37 65
92 76 92 9 0 151 144 195 198 15 17 31 32 37 32 6 0 11 5 11 11 0 6 6 9 13 6
7 -3 21 1 32 9 10 8 13 14 6 14 -7 0 -10 4 -7 9 8 13 -52 19 -64 7z"/>
<path d="M6293 11433 c9 -2 25 -2 35 0 9 3 1 5 -18 5 -19 0 -27 -2 -17 -5z"/>
<path d="M9364 11209 c-13 -15 -19 -36 -19 -77 l0 -55 32 -1 c18 0 43 5 55 11
13 6 31 14 41 17 25 8 22 58 -5 83 -25 22 -61 43 -76 43 -5 0 -17 -9 -28 -21z"/>
<path d="M27216 11138 c-17 -24 -13 -40 10 -31 18 7 36 38 27 47 -11 11 -21 7
-37 -16z"/>
<path d="M25778 10513 c-12 -3 -18 -14 -18 -33 0 -24 -6 -31 -35 -41 -25 -10
-39 -22 -47 -46 -7 -18 -16 -33 -21 -33 -17 0 -37 -29 -31 -44 3 -9 2 -16 -4
-16 -5 0 -13 -11 -16 -24 -4 -15 -15 -26 -27 -28 -12 -2 -26 -13 -30 -26 -6
-16 -5 -21 2 -16 6 4 14 2 18 -3 3 -5 47 -21 96 -37 116 -36 148 -47 160 -58
18 -16 70 -9 85 12 8 11 21 20 30 20 19 0 40 100 40 195 l0 65 -34 0 c-44 0
-66 9 -66 26 0 8 -4 14 -10 14 -5 0 -10 9 -10 20 0 11 5 20 10 20 19 0 10 17
-15 28 -26 12 -46 13 -77 5z"/>
<path d="M7346 10369 c-11 -19 -24 -28 -38 -26 -11 1 -23 -4 -25 -10 -3 -7 3
-13 12 -13 9 0 13 -4 10 -10 -4 -6 6 -10 24 -10 16 0 33 5 36 10 3 6 22 10 41
10 31 0 34 2 34 30 0 23 4 30 20 30 11 0 20 5 20 10 0 6 -24 10 -59 9 -53 -2
-60 -5 -75 -30z"/>
<path d="M7315 10360 c-3 -5 -1 -10 4 -10 6 0 11 5 11 10 0 6 -2 10 -4 10 -3
0 -8 -4 -11 -10z"/>
<path d="M25520 10249 c0 -11 5 -17 10 -14 6 3 10 13 10 21 0 8 -4 14 -10 14
-5 0 -10 -9 -10 -21z"/>
<path d="M12948 10209 c-21 -23 -38 -50 -38 -60 0 -16 -9 -23 -30 -21 -3 0 -7
-9 -7 -21 -1 -12 -7 -23 -13 -25 -5 -2 -10 -8 -10 -13 0 -16 -89 -99 -105 -99
-8 0 -15 -4 -15 -10 0 -5 -12 -23 -27 -39 -103 -109 -159 -174 -165 -191 -4
-11 -11 -20 -16 -20 -5 0 -12 -12 -15 -27 -5 -22 -18 -33 -63 -53 -31 -14 -67
-37 -80 -52 -12 -16 -27 -28 -32 -28 -6 0 -24 -13 -42 -30 -18 -16 -38 -30
-45 -30 -7 0 -33 -19 -57 -42 -23 -22 -57 -47 -75 -55 -20 -8 -35 -23 -39 -38
-4 -15 -13 -25 -24 -25 -11 0 -22 -5 -25 -10 -4 -6 -15 -8 -26 -5 -12 4 -21 1
-25 -9 -3 -8 -14 -18 -24 -21 -10 -3 -30 -17 -46 -30 -16 -14 -46 -28 -66 -31
-27 -5 -38 -12 -38 -24 0 -11 -10 -20 -25 -24 -14 -4 -25 -11 -25 -16 0 -6 -7
-10 -16 -10 -12 0 -14 -7 -9 -29 5 -23 1 -33 -21 -50 -15 -11 -33 -21 -41 -21
-7 0 -16 -7 -19 -15 -4 -8 -12 -15 -19 -15 -8 0 -20 -6 -27 -13 -23 -22 -85
-47 -102 -41 -9 3 -16 1 -16 -5 0 -6 -9 -11 -20 -11 -11 0 -20 -4 -20 -10 0
-5 -7 -10 -15 -10 -17 0 -51 -18 -72 -37 -7 -6 -23 -15 -36 -19 -12 -4 -27
-14 -34 -23 -6 -9 -35 -28 -65 -41 -29 -14 -57 -31 -61 -38 -6 -9 -19 -11 -38
-7 -17 4 -35 2 -42 -4 -9 -7 -35 -6 -83 1 -93 14 -141 5 -157 -30 -23 -52 -31
-55 -170 -60 -95 -3 -137 -8 -148 -19 -24 -20 -99 -27 -99 -8 0 7 -8 16 -17
19 -30 9 -172 26 -214 26 -23 0 -47 7 -55 15 -14 14 -73 20 -184 19 -14 0 -27
2 -30 6 -3 4 -14 12 -25 18 -12 7 -15 12 -6 12 24 0 -47 60 -79 67 -17 3 -30
10 -30 15 0 6 -7 8 -15 4 -8 -3 -25 -1 -38 3 -12 5 -62 17 -112 26 -49 9 -92
20 -95 26 -9 13 -68 29 -107 29 -26 0 -33 4 -33 20 0 13 -7 20 -20 20 -13 0
-20 7 -20 20 0 13 -7 20 -20 20 -11 0 -20 7 -20 15 0 8 -4 15 -10 15 -5 0 -10
6 -10 14 0 14 -41 26 -90 26 -15 0 -37 9 -50 20 -13 11 -27 20 -31 20 -4 0
-19 11 -31 23 -13 13 -36 27 -51 31 -15 3 -27 11 -27 16 0 6 -9 10 -20 10 -11
0 -20 5 -20 10 0 6 -11 10 -25 10 -15 0 -39 7 -56 15 -30 16 -99 12 -99 -6 0
-5 -4 -9 -10 -9 -5 0 -10 23 -10 50 0 43 -3 50 -20 50 -13 0 -20 7 -20 20 0
13 -7 20 -20 20 -13 0 -20 7 -20 20 0 11 -4 20 -10 20 -5 0 -10 6 -10 13 0 14
-40 37 -65 37 -8 0 -15 4 -15 8 0 5 -12 14 -26 21 -32 14 -94 4 -94 -15 0 -9
-11 -14 -30 -14 -19 0 -30 5 -30 14 0 28 -102 35 -122 8 -7 -10 -29 -23 -49
-28 -49 -15 -165 4 -184 29 -9 12 -24 18 -42 16 -34 -3 -103 11 -103 20 0 10
-31 41 -70 71 -18 14 -42 35 -53 48 -11 12 -28 22 -37 22 -8 0 -22 9 -30 20
-8 11 -22 20 -32 20 -10 0 -18 3 -18 8 0 7 -70 32 -90 32 -12 0 -180 141 -180
151 0 4 -19 17 -42 29 -50 26 -74 39 -108 62 -14 9 -43 21 -65 27 -60 16 -101
45 -109 78 -4 15 -14 38 -22 51 -14 21 -16 22 -47 6 -18 -9 -74 -46 -126 -83
-52 -36 -130 -91 -173 -121 -43 -30 -133 -93 -201 -139 -118 -82 -1575 -1114
-1767 -1253 -100 -72 -244 -174 -810 -576 -190 -135 -362 -259 -383 -275 l-38
-29 25 -42 c13 -22 29 -61 36 -86 6 -25 20 -59 29 -76 10 -17 24 -48 31 -70 7
-21 25 -66 41 -98 16 -33 29 -65 29 -73 0 -7 14 -40 30 -73 17 -33 30 -66 30
-74 0 -8 16 -44 35 -80 19 -37 35 -72 35 -79 0 -7 16 -45 35 -86 19 -40 35
-78 35 -84 0 -7 16 -43 35 -81 19 -39 35 -76 35 -83 0 -8 13 -40 30 -73 16
-33 30 -65 30 -73 0 -7 16 -44 35 -83 19 -38 35 -76 35 -84 0 -8 14 -42 30
-75 17 -33 30 -65 30 -72 0 -7 15 -45 34 -85 19 -40 41 -89 49 -109 15 -35 58
-98 277 -407 255 -360 356 -495 375 -502 11 -4 44 -32 73 -61 80 -82 323 -301
496 -449 36 -30 84 -72 106 -92 23 -21 45 -38 50 -38 5 0 39 -14 77 -31 61
-28 111 -51 318 -150 33 -16 64 -29 68 -29 4 0 50 -20 103 -45 52 -25 97 -45
99 -45 2 0 41 -17 87 -39 145 -68 198 -86 498 -174 175 -52 269 -80 405 -122
77 -24 167 -51 200 -60 33 -10 94 -28 135 -40 41 -13 129 -35 195 -50 66 -15
157 -38 202 -51 45 -14 121 -31 170 -40 48 -8 97 -18 108 -23 61 -27 138 -52
200 -65 39 -8 111 -26 160 -41 50 -15 115 -33 145 -42 30 -8 78 -21 105 -28
219 -61 210 -61 251 -4 16 22 44 58 62 81 17 22 32 45 32 51 0 15 120 132 219
215 93 78 207 201 195 211 -5 4 -27 13 -49 19 -188 54 -192 56 -256 105 -20
15 -39 27 -42 27 -3 0 -42 25 -86 55 -44 30 -85 55 -90 55 -15 0 -902 890
-978 983 -34 41 -43 77 -19 77 7 0 20 -7 27 -17 8 -9 28 -22 44 -30 17 -7 41
-22 55 -33 58 -45 83 -48 245 -29 83 11 173 25 200 33 78 23 111 31 277 67 72
15 70 17 191 -156 50 -71 116 -161 146 -200 31 -38 93 -120 138 -180 45 -61
94 -119 110 -131 15 -11 105 -58 198 -104 94 -46 176 -88 184 -94 7 -6 29 -16
47 -22 40 -14 47 -6 58 61 4 22 13 63 21 90 8 28 26 91 40 140 15 50 36 113
49 140 13 28 35 75 49 105 14 30 37 82 52 115 42 95 51 115 92 205 84 182 90
205 178 670 47 250 93 488 101 529 9 40 13 87 10 105 -3 17 -8 71 -12 121 -3
49 -7 92 -9 95 -2 3 -6 50 -9 105 -4 55 -9 107 -11 115 -2 8 -6 53 -10 100
-16 239 -36 321 -111 457 -19 34 -34 67 -34 74 0 7 -16 43 -35 80 -19 38 -35
74 -35 81 0 6 -15 46 -34 88 -18 41 -50 111 -70 155 -20 45 -36 85 -36 91 0 5
-80 91 -177 190 -185 186 -183 185 -338 249 -16 7 -41 18 -55 24 -14 6 -65 28
-115 50 -51 22 -90 44 -90 52 0 15 -3 15 295 53 150 20 222 24 315 20 66 -2
179 -6 250 -8 72 -2 180 -9 240 -15 110 -12 119 -11 275 19 30 6 74 12 97 15
310 29 409 52 527 123 39 23 79 42 90 42 11 0 50 18 86 39 36 22 79 43 96 47
78 18 316 184 513 357 114 101 139 127 235 237 71 81 161 180 242 264 29 29
55 62 58 73 4 11 24 34 45 51 22 18 43 42 46 54 4 13 13 30 19 38 7 8 25 53
40 100 16 47 33 91 39 98 5 7 7 15 4 19 -3 3 0 18 9 34 8 16 13 29 12 29 -2 0
-20 -19 -40 -41z"/>
<path d="M25478 10233 c7 -3 16 -2 19 1 4 3 -2 6 -13 5 -11 0 -14 -3 -6 -6z"/>
<path d="M9077 10106 c-6 -15 1 -26 15 -26 11 0 10 27 -1 34 -5 3 -11 0 -14
-8z"/>
<path d="M9120 10005 l0 -65 69 0 c67 0 69 1 74 28 3 15 1 29 -4 30 -5 2 -9
19 -9 38 l0 34 -65 0 -65 0 0 -65z"/>
<path d="M8080 9760 c0 -53 2 -60 20 -60 11 0 20 -4 20 -10 0 -6 27 -10 60
-10 l60 0 0 34 c0 36 -12 46 -56 46 -20 0 -24 5 -24 30 0 28 -2 30 -40 30
l-40 0 0 -60z"/>
<path d="M8320 9700 c0 -18 7 -20 80 -20 l80 0 0 -80 0 -80 30 0 30 0 0 80 0
80 -30 0 c-23 0 -30 4 -30 20 0 18 -7 20 -80 20 -73 0 -80 -2 -80 -20z"/>
<path d="M22384 9627 c-9 -24 -85 -65 -143 -78 -41 -9 -67 -7 -134 6 -45 9
-84 20 -87 24 -3 4 -24 12 -46 19 -43 12 -69 8 -92 -15 -7 -7 -22 -13 -33 -13
-10 0 -19 -4 -19 -10 0 -5 -7 -10 -15 -10 -8 0 -15 -7 -15 -15 0 -8 6 -15 14
-15 8 0 18 -9 21 -20 3 -11 13 -20 21 -20 8 0 14 -4 14 -10 0 -5 7 -10 15 -10
8 0 15 -4 15 -10 0 -5 7 -10 16 -10 17 0 54 -36 54 -52 0 -4 9 -8 20 -8 12 0
20 -7 20 -16 0 -8 6 -21 13 -28 6 -8 19 -23 27 -35 8 -11 22 -21 32 -21 10 0
18 -4 18 -10 0 -5 14 -10 30 -10 17 0 30 -4 30 -9 0 -6 232 -26 275 -22 81 5
145 15 145 22 0 5 7 9 15 9 9 0 25 9 37 20 12 11 34 20 50 20 15 0 28 3 28 8
0 4 39 8 88 10 138 4 182 13 182 36 0 7 3 6 9 -2 7 -11 9 -11 14 1 3 7 2 18
-1 23 -10 14 -297 178 -362 207 -86 37 -120 47 -187 54 -52 5 -64 3 -69 -10z"/>
</g>
</svg>
